<?xml version="1.0" standalone="no"?>
<!DOCTYPE svg PUBLIC "-//W3C//DTD SVG 1.1//EN" "http://www.w3.org/Graphics/SVG/1.1/DTD/svg11.dtd" >
<svg xmlns="http://www.w3.org/2000/svg">
<metadata>Generated by IcoMoon</metadata>
<defs>
<font id="icomoon" horiz-adv-x="1024">
<font-face units-per-em="1024" ascent="960" descent="-64" />
<missing-glyph horiz-adv-x="1024" />
<glyph unicode="&#x20;" horiz-adv-x="512" d="" />
<glyph unicode="&#xe900;" glyph-name="icon_upload_w" horiz-adv-x="1204" d="M1163.228 960h-1122.807c-22.324 0-40.421-18.097-40.421-40.421v0-943.158c0-22.324 18.097-40.421 40.421-40.421v0h229.053c22.324 0 40.421 18.097 40.421 40.421s-18.097 40.421-40.421 40.421h-188.632v862.316h1041.965v-862.316h-494.035v460.8l185.039-185.039c7.339-7.395 17.507-11.972 28.744-11.972 22.363 0 40.491 18.129 40.491 40.491 0 11.126-4.487 21.203-11.75 28.522l0.003-0.003-255.551 253.754c-7.401 7.070-17.452 11.421-28.519 11.421s-21.118-4.351-28.535-11.436l0.016 0.015-254.204-253.754c-7.277-7.308-11.776-17.388-11.776-28.519s4.499-21.211 11.778-28.521l-0.001 0.001c7.205-7.5 17.318-12.16 28.519-12.16s21.315 4.66 28.507 12.147l185.052 185.052v-503.018c0.988-21.537 18.689-38.625 40.381-38.625 0.014 0 0.028 0 0.042 0h576.222c22.324 0 40.421 18.097 40.421 40.421v0 943.158c0 22.324-18.097 40.421-40.421 40.421v0z" />
<glyph unicode="&#xe901;" glyph-name="icon_thumbnail_list_b_mouse_hover-on" horiz-adv-x="1258" d="M41.921 876.157h1173.799c23.027 0.311 41.611 18.895 41.921 41.892v0.029c-0.311 23.027-18.895 41.611-41.892 41.921h-1173.828c-23.027-0.311-41.611-18.895-41.921-41.892v-0.029c0.311-23.027 18.895-41.611 41.892-41.921h0.029zM1215.721 19.843h-1173.799c-23.153 0-41.921-18.769-41.921-41.921s18.769-41.921 41.921-41.921v0h1173.799c23.153 0 41.921 18.769 41.921 41.921s-18.769 41.921-41.921 41.921v0zM1215.721 489.921h-1173.799c-23.153 0-41.921-18.769-41.921-41.921s18.769-41.921 41.921-41.921v0h1173.799c23.153 0 41.921 18.769 41.921 41.921s-18.769 41.921-41.921 41.921v0z" />
<glyph unicode="&#xe902;" glyph-name="icon_delete_keyword_vb" d="M578.095 448l431.942 432.873c8.692 8.172 14.105 19.745 14.105 32.582s-5.413 24.41-14.082 32.56l-0.023 0.022c-8.172 8.692-19.745 14.105-32.582 14.105s-24.41-5.413-32.56-14.082l-0.022-0.023-432.873-431.942-432.873 431.942c-8.172 8.692-19.745 14.105-32.582 14.105s-24.41-5.413-32.56-14.082l-0.022-0.023c-8.692-8.172-14.105-19.745-14.105-32.582s5.413-24.41 14.082-32.56l0.023-0.022 431.942-432.873-431.942-432.873c-8.692-8.172-14.105-19.745-14.105-32.582s5.413-24.41 14.082-32.56l0.023-0.022c8.012-8.603 19.404-13.967 32.048-13.967 0.188 0 0.375 0.001 0.562 0.004h-0.028c0.159-0.002 0.346-0.003 0.533-0.003 12.645 0 24.036 5.364 32.024 13.941l0.024 0.026 432.873 431.942 432.873-431.942c8.172-8.692 19.745-14.105 32.582-14.105s24.41 5.413 32.56 14.082l0.022 0.023c8.692 8.172 14.105 19.745 14.105 32.582s-5.413 24.41-14.082 32.56l-0.023 0.022z" />
<glyph unicode="&#xe903;" glyph-name="icon_print_b" horiz-adv-x="1056" d="M1027.091 725.060h-176.978v205.959c0 0.001 0 0.002 0 0.003 0 16.006-12.975 28.981-28.981 28.981-0.136 0-0.272-0.001-0.407-0.003h-585.398c-15.919-0.215-28.766-13.062-28.981-28.961v-205.979h-177.365c-16.006 0-28.981-12.975-28.981-28.981v0-516.251c0-16.006 12.975-28.981 28.981-28.981v0h177.365v-185.866c0.215-15.919 13.062-28.766 28.961-28.981h585.439c16.006 0 28.981 12.975 28.981 28.981v0 185.866h177.365c0.116-0.002 0.252-0.003 0.389-0.003 15.792 0 28.595 12.802 28.595 28.595 0 0.137-0.001 0.273-0.003 0.41v-0.021 516.251c0.002 0.116 0.003 0.252 0.003 0.389 0 15.792-12.802 28.595-28.595 28.595-0.137 0-0.273-0.001-0.41-0.003h0.021zM264.308 902.038h527.457v-176.978h-527.457zM791.765-6.038h-527.457v373.663h527.457zM998.11 208.809h-147.997v187.798c0.002 0.116 0.003 0.252 0.003 0.389 0 15.792-12.802 28.595-28.595 28.595-0.137 0-0.273-0.001-0.41-0.003h-585.784c-16.006 0-28.981-12.975-28.981-28.981v0-187.798h-148.383v458.288h940.148z" />
<glyph unicode="&#xe904;" glyph-name="icon_upload_b" horiz-adv-x="1204" d="M1163.228 960h-1122.807c-22.324 0-40.421-18.097-40.421-40.421v0-943.158c0-22.324 18.097-40.421 40.421-40.421v0h229.053c22.324 0 40.421 18.097 40.421 40.421s-18.097 40.421-40.421 40.421h-188.632v862.316h1041.965v-862.316h-494.035v460.8l185.039-185.039c7.339-7.395 17.507-11.972 28.744-11.972 22.363 0 40.491 18.129 40.491 40.491 0 11.126-4.487 21.203-11.75 28.522l0.003-0.003-255.551 253.754c-7.401 7.070-17.452 11.421-28.519 11.421s-21.118-4.351-28.535-11.436l0.016 0.015-254.204-253.754c-7.277-7.308-11.776-17.388-11.776-28.519s4.499-21.211 11.778-28.521l-0.001 0.001c7.205-7.5 17.318-12.16 28.519-12.16s21.315 4.66 28.507 12.147l185.052 185.052v-503.018c0.988-21.537 18.689-38.625 40.381-38.625 0.014 0 0.028 0 0.042 0h576.222c22.324 0 40.421 18.097 40.421 40.421v0 943.158c0 22.324-18.097 40.421-40.421 40.421v0z" />
<glyph unicode="&#xe905;" glyph-name="icon_form_w_mouse_hover" horiz-adv-x="1027" d="M909.215 221.829s0 0 0 2.643v104.968c0 93.005-75.396 168.401-168.401 168.401v0h-198.985v176.708c66.567 13.68 115.917 71.791 115.917 141.429 0 79.659-64.577 144.236-144.236 144.236s-144.236-64.577-144.236-144.236c0-69.637 49.35-127.749 114.985-141.268l0.932-0.16v-176.708h-199.363c-93.005 0-168.401-75.396-168.401-168.401v0-104.968c-0.107-0.397-0.168-0.852-0.168-1.322s0.061-0.925 0.176-1.358l-0.008 0.037c-66.727-13.372-116.295-71.494-116.295-141.193 0-79.451 64.408-143.858 143.858-143.858s143.858 64.408 143.858 143.858c0 69.699-49.568 127.821-115.375 141.039l-0.92 0.154c0.081 0.454 0.127 0.977 0.127 1.51s-0.046 1.056-0.135 1.564l0.008-0.054v104.59c0 62.56 50.715 113.274 113.274 113.274v0h455.363c62.56 0 113.274-50.715 113.274-113.274v0-104.968s0-1.888 0-3.021c-67.056-13.459-116.861-71.876-116.861-141.926 0-79.868 64.746-144.614 144.614-144.614s144.614 64.746 144.614 144.614c0 70.049-49.805 128.466-115.936 141.77l-0.926 0.155zM425.912 815.764c0 48.379 39.219 87.599 87.599 87.599s87.599-39.219 87.599-87.599c0-48.379-39.219-87.599-87.599-87.599v0c-48.379 0-87.599 39.219-87.599 87.599v0zM231.835 80.236c0.002-0.224 0.003-0.49 0.003-0.755 0-48.379-39.219-87.599-87.599-87.599s-87.599 39.219-87.599 87.599c0 48.378 39.217 87.597 87.595 87.599v0c0.001 0 0.002 0 0.003 0 48.114 0 87.168-38.79 87.595-86.803v-0.040zM883.162-7.363c-0.112-0.001-0.245-0.001-0.378-0.001-48.379 0-87.599 39.219-87.599 87.599s39.219 87.599 87.599 87.599c48.379 0 87.598-39.219 87.599-87.598v0c0 0 0-0.001 0-0.001 0-48.247-39.004-87.384-87.201-87.598h-0.020z" />
<glyph unicode="&#xe906;" glyph-name="logo_b_1" horiz-adv-x="8170" d="M1254.679 329.236v245.457c0 154.267-72.087 235.725-202.926 235.725-0.496 0.003-1.082 0.005-1.669 0.005-61.32 0-118.368-18.295-165.981-49.724l1.129 0.7-6.848-4.686 26.672-68.843 11.534 8.29c34.825 23.707 77.815 37.852 124.109 37.852 0.592 0 1.183-0.002 1.774-0.007l-0.091 0.001c2.482 0.186 5.376 0.291 8.295 0.291 30.387 0 58.096-11.464 79.038-30.303l-0.108 0.095c23.028-29.958 36.905-67.993 36.905-109.271 0-6.199-0.313-12.325-0.924-18.363l0.062 0.76v-6.127c-122.909 0-216.262-30.277-271.409-84.703-35.252-35.227-57.057-83.906-57.057-137.678 0-2.284 0.039-4.56 0.117-6.825l-0.009 0.329c-0.094-2.101-0.147-4.565-0.147-7.042 0-92.963 75.361-168.324 168.324-168.324 2.841 0 5.665 0.070 8.472 0.209l-0.395-0.016c1.328-0.031 2.892-0.048 4.46-0.048 62.562 0 118.615 27.866 156.426 71.862l0.229 0.273 6.127-62.716h83.261v12.615c-5.968 41.145-9.377 88.653-9.377 136.957 0 1.144 0.002 2.287 0.006 3.43v-0.177zM1167.093 381.139c0.001-0.197 0.002-0.431 0.002-0.664 0-11.583-1.713-22.766-4.899-33.31l0.211 0.814c-16.114-61.616-71.284-106.346-136.902-106.346-0.783 0-1.565 0.006-2.345 0.019l0.118-0.002c-45.775 0-94.434 28.835-94.434 108.131-0.059 1.415-0.093 3.076-0.093 4.744 0 33.819 13.821 64.411 36.124 86.434l0.013 0.012c36.044 36.044 102.364 54.065 195.717 54.065h7.209zM368.727 491.433c35.252 35.227 57.057 83.906 57.057 137.678 0 2.284-0.039 4.56-0.117 6.825l0.009-0.329c0.073 1.848 0.114 4.017 0.114 6.196 0 93.162-75.523 168.684-168.684 168.684-1.688 0-3.37-0.025-5.046-0.074l0.246 0.006c-1.159 0.024-2.525 0.037-3.895 0.037-63.94 0-121.059-29.21-158.739-75.013l-0.284-0.355-6.127 62.716h-83.261l1.802-12.615c4.885-37.123 7.673-80.052 7.673-123.632 0-5.068-0.038-10.127-0.113-15.177l0.009 0.763v-245.457c0-154.267 72.087-235.725 202.565-235.725 0.816-0.008 1.78-0.013 2.746-0.013 60.916 0 117.589 18.163 164.9 49.368l-1.124-0.697 7.209 5.046-25.231 68.483-11.534-7.93c-34.825-23.707-77.815-37.852-124.109-37.852-0.592 0-1.183 0.002-1.774 0.007l0.091-0.001c-2.635-0.212-5.706-0.332-8.804-0.332-30.231 0-57.779 11.487-78.517 30.334l0.096-0.086c-23.028 29.958-36.905 67.993-36.905 109.271 0 6.199 0.313 12.325 0.924 18.363l-0.062-0.76v6.127c120.386 1.081 214.099 30.277 268.886 86.144zM96.957 481.701v113.537c-0.001 0.197-0.002 0.431-0.002 0.664 0 11.583 1.713 22.766 4.899 33.31l-0.211-0.814c15.962 61.4 70.899 105.998 136.252 105.998 1.011 0 2.020-0.011 3.026-0.032l-0.15 0.003c45.415 0 94.434-28.474 94.434-108.131 0.059-1.415 0.093-3.076 0.093-4.744 0-33.819-13.821-64.411-36.124-86.434l-0.013-0.012c-36.765-37.485-105.608-55.507-202.205-54.786zM1883.281 541.173c-72.087 36.044-102.004 58.030-102.004 108.131 0.44 47.042 38.677 85.006 85.78 85.006 2.539 0 5.052-0.11 7.535-0.326l-0.322 0.023c0.479 0.005 1.046 0.008 1.613 0.008 37.009 0 71.24-11.893 99.080-32.065l-0.492 0.339 10.813-7.569 33.521 72.087-7.569 5.407c-35.149 22.662-78.081 36.13-124.159 36.13-2.222 0-4.436-0.031-6.643-0.094l0.325 0.007c-108.131 0-187.427-72.087-187.427-171.928 0-72.087 49.019-130.118 149.581-176.253 76.773-36.044 104.166-67.402 104.166-121.828s-43.613-96.597-113.537-96.597c-43.517 1.421-83.671 14.662-117.693 36.594l0.912-0.55-11.174 7.209-30.277-74.25 7.569-5.046c40.309-24.29 88.975-38.659 140.998-38.659 2.511 0 5.014 0.033 7.509 0.1l-0.368-0.008c123.99 0 204.007 72.087 204.007 183.462 0 104.887-76.773 154.988-151.744 189.229zM7047.254 731.844c1.383 0.030 3.013 0.048 4.647 0.048 40.092 0 77.745-10.44 110.39-28.749l-1.139 0.587 11.174-6.127 28.114 74.61-7.569 5.046c-38.552 20.933-84.413 33.239-133.149 33.239-2.356 0-4.705-0.029-7.047-0.086l0.347 0.007c-172.649 0-293.395-134.803-293.395-327.637s110.294-315.742 274.292-315.742c1.375-0.020 2.997-0.032 4.623-0.032 55.24 0 107.365 13.333 153.334 36.957l-1.888-0.881 7.93 4.325-21.626 72.087-11.534-5.407c-34.732-17.505-75.7-27.755-119.062-27.755-0.339 0-0.678 0.001-1.016 0.002h0.052c-118.944 0-196.077 94.074-196.077 240.051-0.068 2.363-0.107 5.143-0.107 7.932 0 61.317 18.764 118.252 50.863 165.376l-0.655-1.019c32.463 44.593 84.488 73.248 143.206 73.248 1.862 0 3.716-0.029 5.564-0.086l-0.27 0.007zM7972.134 810.419c-1.226 0.025-2.671 0.040-4.12 0.040-70.146 0-132.399-33.79-171.371-85.982l-0.402-0.563-3.244 72.087h-82.18v-23.068c2.523-41.090 4.325-76.773 4.325-132.641v-462.080h87.946v385.307c-0.001 0.18-0.001 0.392-0.001 0.605 0 17.454 2.235 34.387 6.436 50.526l-0.307-1.391c14.699 67.14 72.034 117.227 141.649 120.732l0.363 0.015c108.131 0 130.118-98.039 130.118-180.218v-375.575h87.946v385.307c1.081 235.005-164.359 246.899-197.159 246.899zM2703.273 323.83l-167.243 473.974h-85.063l202.565-567.327c2.863-6.010 4.686-13.023 5.041-20.42l0.005-0.125c-0.781-8.893-2.96-17.087-6.322-24.638l0.194 0.488-87.946-249.782h91.551l296.279 861.804h-83.621zM3850.182 331.399v235.725c0 161.476-76.773 247.259-222.389 247.259-0.82 0.007-1.789 0.011-2.76 0.011-67.873 0-131.365-18.761-185.572-51.379l1.626 0.907-7.209-4.686 30.998-92.632 11.894 7.93c37.53 24.411 83.445 38.927 132.75 38.927 0.088 0 0.176 0 0.264 0h-0.014c2.013 0.124 4.365 0.194 6.734 0.194 29.006 0 55.542-10.575 75.963-28.080l-0.158 0.132c19.655-23.269 31.602-53.602 31.602-86.726 0-4.491-0.22-8.931-0.649-13.309l0.044 0.555v-3.604c-122.188 0-216.262-30.998-271.409-86.144-35.706-36.062-57.767-85.692-57.767-140.474 0-2.188 0.035-4.369 0.105-6.54l-0.008 0.317c-0.062-1.756-0.098-3.818-0.098-5.89 0-97.74 79.234-176.974 176.974-176.974 2.316 0 4.622 0.044 6.916 0.133l-0.33-0.010c0.612-0.006 1.335-0.010 2.059-0.010 62.849 0 119.199 27.831 157.396 71.84l0.218 0.257 7.209-58.751h117.142v12.615c-6.43 40.215-10.104 86.58-10.104 133.804 0 1.619 0.004 3.237 0.013 4.854l-0.001-0.25zM3725.471 388.348c0.001-0.216 0.002-0.471 0.002-0.726 0-66.288-53.737-120.025-120.025-120.025-0.381 0-0.761 0.002-1.142 0.005h0.058c-19.464 0-82.54 6.848-82.54 94.074-0.075 1.466-0.117 3.183-0.117 4.91 0 28.34 11.476 53.999 30.035 72.585l-0.001-0.001c32.439 32.079 90.83 47.938 174.091 47.938v0zM4666.21 815.825c-64.781-2.453-120.284-39.87-148.402-93.83l-0.458-0.965-3.244 82.18h-114.619v-11.534c3.604-64.158 5.046-122.188 5.046-176.974v-435.768h126.513v335.566c-0.001 0.273-0.001 0.595-0.001 0.918 0 17.493 1.442 34.65 4.215 51.357l-0.249-1.814c12.976 76.413 62.716 126.153 126.153 126.153 1.002 0.022 2.182 0.035 3.366 0.035 9.378 0 18.568-0.799 27.508-2.334l-0.958 0.136 12.976-2.883v123.63h-8.65c-8.535 3.021-18.451 5.193-28.732 6.095l-0.464 0.033zM5446.916 960h-125.071v-158.232h-116.061v-101.643h116.061v-521.191h125.071v521.191h115.7v101.643h-115.7zM6127.42 403.126c-61.909 0-112.096-50.187-112.096-112.096s50.187-112.096 112.096-112.096c61.909 0 112.096 50.187 112.096 112.096v0c0 61.909-50.187 112.096-112.096 112.096v0z" />
<glyph unicode="&#xe907;" glyph-name="icon_events_w" horiz-adv-x="1107" d="M1069.419 794.839h-266.323v128c0 20.524-16.638 37.161-37.161 37.161s-37.161-16.638-37.161-37.161v-128h-386.065v128c0 20.524-16.638 37.161-37.161 37.161s-37.161-16.638-37.161-37.161v0-128h-231.226c-20.524 0-37.161-16.638-37.161-37.161v0-784.516c0-20.524 16.638-37.161 37.161-37.161v0h1032.258c20.524 0 37.161 16.638 37.161 37.161v0 784.516c0 20.524-16.638 37.161-37.161 37.161v0zM1032.258 10.323h-957.935v710.194h194.065v-82.581c0-20.524 16.638-37.161 37.161-37.161s37.161 16.638 37.161 37.161v0 82.581h386.065v-82.581c0-20.524 16.638-37.161 37.161-37.161s37.161 16.638 37.161 37.161v0 82.581h229.161zM756.439 495.071l-251.458-251.871-152.361 152.361c-6.747 6.798-16.095 11.007-26.426 11.007-20.559 0-37.226-16.667-37.226-37.226 0-10.228 4.125-19.493 10.803-26.222l178.785-178.785c6.828-6.618 16.151-10.698 26.426-10.698s19.598 4.080 26.436 10.707l277.874 277.874c8.511 6.944 13.903 17.432 13.903 29.18 0 20.752-16.823 37.574-37.574 37.574-11.748 0-22.236-5.391-29.127-13.835l-0.054-0.068z" />
<glyph unicode="&#xe908;" glyph-name="icon_form_b_mouse_hover" horiz-adv-x="1027" d="M909.215 221.829s0 0 0 2.643v104.968c0 93.005-75.396 168.401-168.401 168.401v0h-198.985v176.708c66.567 13.68 115.917 71.791 115.917 141.429 0 79.659-64.577 144.236-144.236 144.236s-144.236-64.577-144.236-144.236c0-69.637 49.35-127.749 114.985-141.268l0.932-0.16v-176.708h-199.363c-93.005 0-168.401-75.396-168.401-168.401v0-104.968c-0.107-0.397-0.168-0.852-0.168-1.322s0.061-0.925 0.176-1.358l-0.008 0.037c-66.727-13.372-116.295-71.494-116.295-141.193 0-79.451 64.408-143.858 143.858-143.858s143.858 64.408 143.858 143.858c0 69.699-49.568 127.821-115.375 141.039l-0.92 0.154c0.081 0.454 0.127 0.977 0.127 1.51s-0.046 1.056-0.135 1.564l0.008-0.054v104.59c0 62.56 50.715 113.274 113.274 113.274v0h455.363c62.56 0 113.274-50.715 113.274-113.274v0-104.968s0-1.888 0-3.021c-67.056-13.459-116.861-71.876-116.861-141.926 0-79.868 64.746-144.614 144.614-144.614s144.614 64.746 144.614 144.614c0 70.049-49.805 128.466-115.936 141.77l-0.926 0.155zM425.912 815.764c0 48.379 39.219 87.599 87.599 87.599s87.599-39.219 87.599-87.599c0-48.379-39.219-87.599-87.599-87.599v0c-48.379 0-87.599 39.219-87.599 87.599v0zM231.835 80.236c0.002-0.224 0.003-0.49 0.003-0.755 0-48.379-39.219-87.599-87.599-87.599s-87.599 39.219-87.599 87.599c0 48.378 39.217 87.597 87.595 87.599v0c0.001 0 0.002 0 0.003 0 48.114 0 87.168-38.79 87.595-86.803v-0.040zM883.162-7.363c-0.112-0.001-0.245-0.001-0.378-0.001-48.379 0-87.599 39.219-87.599 87.599s39.219 87.599 87.599 87.599c48.379 0 87.598-39.219 87.599-87.598v0c0 0 0-0.001 0-0.001 0-48.247-39.004-87.384-87.201-87.598h-0.020z" />
<glyph unicode="&#xe909;" glyph-name="icon_event_add" horiz-adv-x="790" d="M687.248 845.459c-70.958 70.787-168.895 114.558-277.055 114.558-1.256 0-2.51-0.006-3.763-0.018l0.191 0.001h-24.626c-227.937-10.309-381.996-166.658-381.996-381.996-0.003-0.591-0.004-1.291-0.004-1.992 0-42.622 5.433-83.974 15.644-123.404l-0.749 3.408c73.306-286.353 343.624-503.982 353.36-515.436 4.973-4.273 11.489-6.874 18.612-6.874 0.101 0 0.202 0.001 0.302 0.002h13.73c0.010 0 0.022 0 0.034 0 7.39 0 14.175 2.592 19.495 6.917l-0.057-0.045c11.454 9.163 280.054 229.083 352.787 515.436 9.477 34.799 14.923 74.753 14.923 115.98 0 1.91-0.012 3.818-0.035 5.723l0.003-0.289c0.167 4.155 0.262 9.032 0.262 13.932 0 98.48-38.478 187.974-101.219 254.266l0.161-0.171zM730.201 576.859c0.021-1.509 0.032-3.29 0.032-5.074 0-36.071-4.819-71.016-13.848-104.227l0.643 2.777c-57.271-233.092-268.027-424.949-319.57-470.192-53.834 43.526-262.872 237.673-322.434 470.765-8.371 31.409-13.179 67.469-13.179 104.651 0 0.86 0.003 1.719 0.008 2.577l-0.001-0.132c-4.582 184.984 128.859 313.271 326.443 319.57h15.463c1.594 0.028 3.474 0.044 5.357 0.044 90.342 0 172.202-36.316 231.778-95.147l-0.034 0.034c53.951-54.845 87.261-130.138 87.261-213.211 0-3.97-0.076-7.923-0.227-11.857l0.017 0.567zM395.168 795.633c-103.429 0-187.275-83.846-187.275-187.275s83.846-187.275 187.275-187.275c103.429 0 187.275 83.846 187.275 187.275v0c0 103.429-83.846 187.275-187.275 187.275v0zM395.168 482.935c-69.269 0-125.423 56.154-125.423 125.423s56.154 125.423 125.423 125.423c69.269 0 125.423-56.154 125.423-125.423v0c0-69.269-56.154-125.423-125.423-125.423v0z" />
<glyph unicode="&#xe90a;" glyph-name="icon_arrow_right2_vb_mouse_hover" horiz-adv-x="559" d="M46.545-64c-12.842 0.048-24.459 5.255-32.894 13.655l0.002-0.002c-8.486 8.386-13.742 20.025-13.742 32.892s5.256 24.506 13.738 32.888l0.005 0.004 432.562 432.562-432.562 432.562c-7.74 8.29-12.492 19.455-12.492 31.731 0 25.706 20.839 46.545 46.545 46.545 12.276 0 23.442-4.752 31.758-12.517l-0.027 0.025 465.455-465.455c8.486-8.386 13.742-20.025 13.742-32.892s-5.256-24.506-13.738-32.888l-0.005-0.004-465.455-465.455c-8.433-8.398-20.050-13.605-32.883-13.653h-0.009z" />
<glyph unicode="&#xe90b;" horiz-adv-x="1783" d="M474.074 876.184h735.004c215.952 0 391.016-175.064 391.016-391.016s-175.064-391.016-391.016-391.016h-735.004c-215.952 0-391.016 175.064-391.016 391.016s175.064 391.016 391.016 391.016z" />
<glyph unicode="&#xe90c;" horiz-adv-x="1783" d="M474.074 55.467v0h735.004c237.037 0.647 428.942 192.952 428.942 430.078 0 0.134 0 0.268 0 0.402v-0.021c0 0.071 0 0.155 0 0.239 0 15.279-0.827 30.365-2.438 45.215l0.162-1.839c-10.949 101.931-56.125 191.663-123.631 259.027l-0.008 0.007-9.481 8.723c-6.827 6.447-13.653 12.895-21.239 18.963-73.159 61.118-168.214 98.229-271.937 98.229-0.264 0-0.528 0-0.792-0.001h-734.584c-231.554-7.101-416.563-196.511-416.563-429.132s185.008-422.031 415.911-429.116l0.652-0.016zM1208.699 838.637c169.734-0.389 311.427-119.968 345.842-279.456l0.422-2.333c4.511-21.403 7.131-46.024 7.206-71.243v-0.058c-0.215-194.996-158.124-353.038-353.049-353.47h-0.041c-3.451-0.121-7.506-0.19-11.577-0.19-195.216 0-353.47 158.254-353.47 353.47s158.254 353.47 353.47 353.47c4.071 0 8.126-0.069 12.163-0.205l-0.587 0.016zM473.695 838.637h493.037c-112.82-78.32-185.758-207.215-185.758-353.146 0-118.5 48.094-225.766 125.828-303.345l0.007-0.007c18.097-17.863 37.801-34.195 58.842-48.729l1.46-0.954h-493.037c-190.171 6.427-341.893 162.135-341.893 353.28s151.722 346.853 341.306 353.264l0.587 0.016z" />
<glyph unicode="&#xe90d;" glyph-name="icon_events_b" horiz-adv-x="1107" d="M1069.419 794.839h-266.323v128c0 20.524-16.638 37.161-37.161 37.161s-37.161-16.638-37.161-37.161v-128h-386.065v128c0 20.524-16.638 37.161-37.161 37.161s-37.161-16.638-37.161-37.161v0-128h-231.226c-20.524 0-37.161-16.638-37.161-37.161v0-784.516c0-20.524 16.638-37.161 37.161-37.161v0h1032.258c20.524 0 37.161 16.638 37.161 37.161v0 784.516c0 20.524-16.638 37.161-37.161 37.161v0zM1032.258 10.323h-957.935v710.194h194.065v-82.581c0-20.524 16.638-37.161 37.161-37.161s37.161 16.638 37.161 37.161v0 82.581h386.065v-82.581c0-20.524 16.638-37.161 37.161-37.161s37.161 16.638 37.161 37.161v0 82.581h229.161zM756.439 495.071l-251.458-251.871-152.361 152.361c-6.747 6.798-16.095 11.007-26.426 11.007-20.559 0-37.226-16.667-37.226-37.226 0-10.228 4.125-19.493 10.803-26.222l178.785-178.785c6.828-6.618 16.151-10.698 26.426-10.698s19.598 4.080 26.436 10.707l277.874 277.874c8.511 6.944 13.903 17.432 13.903 29.18 0 20.752-16.823 37.574-37.574 37.574-11.748 0-22.236-5.391-29.127-13.835l-0.054-0.068z" />
<glyph unicode="&#xe90e;" glyph-name="icon_thumbnail_list" horiz-adv-x="1258" d="M41.921 876.157h1173.799c23.027 0.311 41.611 18.895 41.921 41.892v0.029c-0.311 23.027-18.895 41.611-41.892 41.921h-1173.828c-23.027-0.311-41.611-18.895-41.921-41.892v-0.029c0.311-23.027 18.895-41.611 41.892-41.921h0.029zM1215.721 19.843h-1173.799c-23.153 0-41.921-18.769-41.921-41.921s18.769-41.921 41.921-41.921v0h1173.799c23.153 0 41.921 18.769 41.921 41.921s-18.769 41.921-41.921 41.921v0zM1215.721 489.921h-1173.799c-23.153 0-41.921-18.769-41.921-41.921s18.769-41.921 41.921-41.921v0h1173.799c23.153 0 41.921 18.769 41.921 41.921s-18.769 41.921-41.921 41.921v0z" />
<glyph unicode="&#xe90f;" glyph-name="icon_arrow_right2_vb" horiz-adv-x="536" d="M24.381-64c-0.034 0-0.074 0-0.114 0-6.696 0-12.752 2.735-17.113 7.15l-0.002 0.002c-4.406 4.411-7.13 10.502-7.13 17.229s2.725 12.818 7.131 17.229v0l470.39 470.39-470.39 470.39c-4.054 4.342-6.544 10.191-6.544 16.621 0 13.465 10.916 24.381 24.381 24.381 6.43 0 12.279-2.489 16.635-6.557l-0.014 0.013 487.619-487.619c4.406-4.411 7.13-10.502 7.13-17.229s-2.725-12.818-7.131-17.229v0l-487.619-487.619c-4.364-4.417-10.42-7.152-17.116-7.152-0.040 0-0.080 0-0.12 0h0.006z" />
<glyph unicode="&#xe910;" glyph-name="icon_cn_vb" horiz-adv-x="899" d="M887.312 759.37h-400.333v189.046c0 6.398-5.186 11.584-11.584 11.584v0h-54.212c-6.398 0-11.584-5.186-11.584-11.584v0-189.046h-398.016c-6.398 0-11.584-5.186-11.584-11.584v0-458.252c0-6.398 5.186-11.584 11.584-11.584v0h51.895c6.398 0 11.584 5.186 11.584 11.584v0 16.217h334.538v-358.168c0-6.398 5.186-11.584 11.584-11.584v0h54.212c6.398 0 11.584 5.186 11.584 11.584v0 358.168h334.538v-16.217c0-6.398 5.186-11.584 11.584-11.584v0h54.212c6.398 0 11.584 5.186 11.584 11.584v0 458.252c0 6.398-5.186 11.584-11.584 11.584v0zM821.517 681.991v-301.176h-334.538v301.176zM409.6 681.991v-301.176h-334.538v301.176z" />
<glyph unicode="&#xe911;" glyph-name="icon_order_b" horiz-adv-x="1120" d="M390.030 957.269c-3.906 1.687-8.454 2.668-13.23 2.668-9.402 0-17.916-3.801-24.090-9.951l-342.698-342.698c-6.692-6.248-10.864-15.123-10.864-24.972 0-18.851 15.282-34.133 34.133-34.133 9.849 0 18.724 4.171 24.954 10.844l0.018 0.020 284.444 284.444v-873.358c0-18.851 15.282-34.133 34.133-34.133s34.133 15.282 34.133 34.133v0 955.733c0 0.068 0.001 0.148 0.001 0.228 0 14.005-8.549 26.014-20.713 31.092l-0.222 0.082zM1110.471 336.953c-6.175 6.168-14.703 9.982-24.121 9.982s-17.945-3.814-24.121-9.983v0l-284.444-284.444v873.358c0 18.851-15.282 34.133-34.133 34.133s-34.133-15.282-34.133-34.133v0-955.733c0.113-14.155 8.824-26.248 21.163-31.32l0.227-0.083c3.749-1.691 8.124-2.692 12.729-2.731h0.014c9.422 0.009 17.949 3.833 24.121 10.012v0l342.699 342.699c6.28 6.124 10.175 14.667 10.175 24.121s-3.895 17.997-10.168 24.114l-0.007 0.007z" />
<glyph unicode="&#xe912;" glyph-name="icon_artists_b" horiz-adv-x="886" d="M157.863 687.292c0.685-2.237 1.467-4.146 2.399-5.965l-0.095 0.204c-0.089-0.404-0.14-0.868-0.14-1.344s0.051-0.94 0.148-1.387l-0.008 0.043 1.92-3.073c0-3.457 3.457-7.298 5.377-10.755 1.29-1.761 2.562-3.77 3.7-5.863l0.141-0.283 6.53-6.146c6.041-7.177 12.718-13.489 20.046-18.982l0.311-0.223v-9.218c5.338-130.265 112.235-233.847 243.325-233.847s237.987 103.583 243.309 233.366l0.016 0.482c0.183 2.87 0.287 6.224 0.287 9.602s-0.104 6.732-0.31 10.059l0.023-0.456c5.539 3.188 10.179 6.235 14.635 9.516l-0.424-0.298 2.689 2.305c3.366 3.229 6.506 6.612 9.441 10.169l0.161 0.201 3.841 4.609 5.761 9.218 3.457 6.914c0.382 1.884 1.048 3.556 1.96 5.064l-0.040-0.070c1.179 2.593 2.356 5.78 3.32 9.059l0.137 0.543c0.332 3.053 0.522 6.594 0.522 10.179s-0.19 7.126-0.559 10.613l0.037-0.434s0 0 0 2.689c0.252 2.647 0.396 5.724 0.396 8.834s-0.144 6.187-0.425 9.224l0.029-0.389c0.023 0.402 0.037 0.871 0.037 1.344s-0.013 0.943-0.040 1.409l0.003-0.065c-1.995 6.878-4.612 12.868-7.885 18.424l0.203-0.372-4.993 5.761c-4.31 7.175-8.619 13.319-13.31 19.143l0.251-0.322c-52.931 60.091-129.026 98.701-214.182 101.77l-0.528 0.015 9.602 3.841c15.321 3.766 26.507 17.385 26.507 33.615 0 19.092-15.477 34.569-34.569 34.569-5.003 0-9.758-1.063-14.051-2.975l0.22 0.087c-38.064-10.2-68.737-35.972-85.309-69.892l-0.345-0.781c-50.317-3.841-166.314-21.893-215.094-104.090-4.524-7.547-8.908-16.394-12.601-25.594l-0.458-1.293c-1.003-2.405-2.052-5.472-2.928-8.61l-0.145-0.608c-1.582-4.725-3.048-10.541-4.109-16.497l-0.116-0.787c-0.182-1.556-0.285-3.358-0.285-5.185s0.104-3.629 0.305-5.402l-0.020 0.217c-0.183-2.128-0.287-4.605-0.287-7.106s0.104-4.978 0.309-7.426l-0.022 0.32c0-3.457 0-6.914 0-10.371s1.152-3.457 1.92-7.298zM441.71 449.536c-88.408 0.056-161.422 65.894-172.747 151.213l-0.096 0.889h5.761c30.329-7.222 65.152-11.364 100.941-11.364 5.024 0 10.029 0.082 15.014 0.244l-0.727-0.019c57.421 0.51 113.392 4.264 168.411 11.088l-7.091-0.717c24.966 2.305 44.939 7.298 63.376 13.443-5.015-91.732-80.377-164.279-172.794-164.777h-0.049zM225.080 723.013c-0.085 0.577-0.134 1.243-0.134 1.92s0.049 1.343 0.143 1.995l-0.009-0.074c1.52 3.224 3.315 6.003 5.425 8.508l-0.048-0.058s0 0 0 2.689l5.761 10.371c32.648 57.998 140.963 71.058 178.989 71.058h4.225c4.933 0.27 10.707 0.424 16.516 0.424s11.583-0.154 17.317-0.458l-0.801 0.034c24.897-0.073 49.192-2.446 72.744-6.917l-2.455 0.388c50.972-8.16 94.906-33.608 126.531-70.030l0.22-0.259 5.377-7.298 1.92-3.457 2.305-3.841c0.636-1.335 1.287-2.989 1.836-4.689l0.085-0.305c0.079-0.404 0.125-0.869 0.125-1.344s-0.045-0.94-0.132-1.39l0.007 0.046c0.183-0.924 0.288-1.986 0.288-3.073s-0.105-2.149-0.305-3.177l0.017 0.104c-1.631-3.957-4.274-7.219-7.613-9.556l-0.069-0.046-8.45-6.146-12.675-7.298c-26.407-11.661-57.078-20.533-89.13-25.127l-1.901-0.223c-49.932-5.761-188.975-17.284-249.278 0-16.528 4.329-30.834 9.71-44.404 16.361l1.386-0.613-6.914 3.841-2.689 1.92-4.993 3.841-3.841 3.841v3.841c-0.955 1.089-1.735 2.362-2.275 3.755l-0.030 0.086c-0.060 0.404-0.095 0.87-0.095 1.344s0.034 0.94 0.101 1.396l-0.006-0.052c-0.179 0.924-0.282 1.986-0.282 3.073s0.103 2.149 0.298 3.178l-0.017-0.106s0 2.689 0 4.225c-1.33 2.098-2.386 4.531-3.036 7.126l-0.037 0.172zM565.389 307.037h-245.053c-176.684 0-320.336-131.361-320.336-293.833v-42.635c0-19.092 15.477-34.569 34.569-34.569v0h816.588c19.092 0 34.569 15.477 34.569 34.569v0 42.635c0 162.473-143.652 293.833-320.336 293.833zM816.588 4.369h-747.451v8.45c0 124.063 112.54 225.080 251.199 225.080h245.053c138.275 0 251.199-101.017 251.199-225.080z" />
<glyph unicode="&#xe913;" glyph-name="icon_artists_w" horiz-adv-x="886" d="M157.863 687.292c0.685-2.237 1.467-4.146 2.399-5.965l-0.095 0.204c-0.089-0.404-0.14-0.868-0.14-1.344s0.051-0.94 0.148-1.387l-0.008 0.043 1.92-3.073c0-3.457 3.457-7.298 5.377-10.755 1.29-1.761 2.562-3.77 3.7-5.863l0.141-0.283 6.53-6.146c6.041-7.177 12.718-13.489 20.046-18.982l0.311-0.223v-9.218c5.338-130.265 112.235-233.847 243.325-233.847s237.987 103.583 243.309 233.366l0.016 0.482c0.183 2.87 0.287 6.224 0.287 9.602s-0.104 6.732-0.31 10.059l0.023-0.456c5.539 3.188 10.179 6.235 14.635 9.516l-0.424-0.298 2.689 2.305c3.366 3.229 6.506 6.612 9.441 10.169l0.161 0.201 3.841 4.609 5.761 9.218 3.457 6.914c0.382 1.884 1.048 3.556 1.96 5.064l-0.040-0.070c1.179 2.593 2.356 5.78 3.32 9.059l0.137 0.543c0.332 3.053 0.522 6.594 0.522 10.179s-0.19 7.126-0.559 10.613l0.037-0.434s0 0 0 2.689c0.252 2.647 0.396 5.724 0.396 8.834s-0.144 6.187-0.425 9.224l0.029-0.389c0.023 0.402 0.037 0.871 0.037 1.344s-0.013 0.943-0.040 1.409l0.003-0.065c-1.995 6.878-4.612 12.868-7.885 18.424l0.203-0.372-4.993 5.761c-4.31 7.175-8.619 13.319-13.31 19.143l0.251-0.322c-52.931 60.091-129.026 98.701-214.182 101.77l-0.528 0.015 9.602 3.841c15.321 3.766 26.507 17.385 26.507 33.615 0 19.092-15.477 34.569-34.569 34.569-5.003 0-9.758-1.063-14.051-2.975l0.22 0.087c-38.064-10.2-68.737-35.972-85.309-69.892l-0.345-0.781c-50.317-3.841-166.314-21.893-215.094-104.090-4.524-7.547-8.908-16.394-12.601-25.594l-0.458-1.293c-1.003-2.405-2.052-5.472-2.928-8.61l-0.145-0.608c-1.582-4.725-3.048-10.541-4.109-16.497l-0.116-0.787c-0.182-1.556-0.285-3.358-0.285-5.185s0.104-3.629 0.305-5.402l-0.020 0.217c-0.183-2.128-0.287-4.605-0.287-7.106s0.104-4.978 0.309-7.426l-0.022 0.32c0-3.457 0-6.914 0-10.371s1.152-3.457 1.92-7.298zM441.71 449.536c-88.408 0.056-161.422 65.894-172.747 151.213l-0.096 0.889h5.761c30.329-7.222 65.152-11.364 100.941-11.364 5.024 0 10.029 0.082 15.014 0.244l-0.727-0.019c57.421 0.51 113.392 4.264 168.411 11.088l-7.091-0.717c24.966 2.305 44.939 7.298 63.376 13.443-5.015-91.732-80.377-164.279-172.794-164.777h-0.049zM225.080 723.013c-0.085 0.577-0.134 1.243-0.134 1.92s0.049 1.343 0.143 1.995l-0.009-0.074c1.52 3.224 3.315 6.003 5.425 8.508l-0.048-0.058s0 0 0 2.689l5.761 10.371c32.648 57.998 140.963 71.058 178.989 71.058h4.225c4.933 0.27 10.707 0.424 16.516 0.424s11.583-0.154 17.317-0.458l-0.801 0.034c24.897-0.073 49.192-2.446 72.744-6.917l-2.455 0.388c50.972-8.16 94.906-33.608 126.531-70.030l0.22-0.259 5.377-7.298 1.92-3.457 2.305-3.841c0.636-1.335 1.287-2.989 1.836-4.689l0.085-0.305c0.079-0.404 0.125-0.869 0.125-1.344s-0.045-0.94-0.132-1.39l0.007 0.046c0.183-0.924 0.288-1.986 0.288-3.073s-0.105-2.149-0.305-3.177l0.017 0.104c-1.631-3.957-4.274-7.219-7.613-9.556l-0.069-0.046-8.45-6.146-12.675-7.298c-26.407-11.661-57.078-20.533-89.13-25.127l-1.901-0.223c-49.932-5.761-188.975-17.284-249.278 0-16.528 4.329-30.834 9.71-44.404 16.361l1.386-0.613-6.914 3.841-2.689 1.92-4.993 3.841-3.841 3.841v3.841c-0.955 1.089-1.735 2.362-2.275 3.755l-0.030 0.086c-0.060 0.404-0.095 0.87-0.095 1.344s0.034 0.94 0.101 1.396l-0.006-0.052c-0.179 0.924-0.282 1.986-0.282 3.073s0.103 2.149 0.298 3.178l-0.017-0.106s0 2.689 0 4.225c-1.33 2.098-2.386 4.531-3.036 7.126l-0.037 0.172zM565.389 307.037h-245.053c-176.684 0-320.336-131.361-320.336-293.833v-42.635c0-19.092 15.477-34.569 34.569-34.569v0h816.588c19.092 0 34.569 15.477 34.569 34.569v0 42.635c0 162.473-143.652 293.833-320.336 293.833zM816.588 4.369h-747.451v8.45c0 124.063 112.54 225.080 251.199 225.080h245.053c138.275 0 251.199-101.017 251.199-225.080z" />
<glyph unicode="&#xe914;" glyph-name="icon_arrow_left_vb_mouse_hover" horiz-adv-x="544" d="M512-64c-0.055 0-0.12-0.001-0.185-0.001-8.791 0-16.753 3.545-22.537 9.283l-479.998 479.998c-5.846 5.8-9.466 13.837-9.466 22.72s3.619 16.92 9.463 22.718l480.002 480.002c5.815 5.815 13.847 9.411 22.72 9.411 17.745 0 32.131-14.386 32.131-32.131 0-8.873-3.596-16.905-9.411-22.72l-457.6-457.28 457.6-457.28c5.846-5.8 9.466-13.837 9.466-22.72s-3.619-16.92-9.463-22.718l-0.002-0.002c-5.782-5.736-13.744-9.281-22.535-9.281-0.065 0-0.13 0-0.195 0.001h0.010z" />
<glyph unicode="&#xe915;" glyph-name="icon_order_w" horiz-adv-x="1120" d="M390.030 957.269c-3.906 1.687-8.454 2.668-13.23 2.668-9.402 0-17.916-3.801-24.090-9.951l-342.698-342.698c-6.692-6.248-10.864-15.123-10.864-24.972 0-18.851 15.282-34.133 34.133-34.133 9.849 0 18.724 4.171 24.954 10.844l0.018 0.020 284.444 284.444v-873.358c0-18.851 15.282-34.133 34.133-34.133s34.133 15.282 34.133 34.133v0 955.733c0 0.068 0.001 0.148 0.001 0.228 0 14.005-8.549 26.014-20.713 31.092l-0.222 0.082zM1110.471 336.953c-6.175 6.168-14.703 9.982-24.121 9.982s-17.945-3.814-24.121-9.983v0l-284.444-284.444v873.358c0 18.851-15.282 34.133-34.133 34.133s-34.133-15.282-34.133-34.133v0-955.733c0.113-14.155 8.824-26.248 21.163-31.32l0.227-0.083c3.749-1.691 8.124-2.692 12.729-2.731h0.014c9.422 0.009 17.949 3.833 24.121 10.012v0l342.699 342.699c6.28 6.124 10.175 14.667 10.175 24.121s-3.895 17.997-10.168 24.114l-0.007 0.007z" />
<glyph unicode="&#xe916;" glyph-name="icon_thumbnail_square_b_mouse_hover-on" d="M403.064 960h-370.383c-17.951-0.242-32.439-14.73-32.681-32.658v-370.406c0.242-17.951 14.73-32.439 32.658-32.681h370.406c17.951 0.242 32.439 14.73 32.681 32.658v370.406c-0.242 17.951-14.73 32.439-32.658 32.681h-0.023zM370.383 589.617h-305.021v305.021h305.021zM991.319 960h-370.383c-17.951-0.242-32.439-14.73-32.681-32.658v-370.406c0.242-17.951 14.73-32.439 32.658-32.681h370.406c17.951 0.242 32.439 14.73 32.681 32.658v370.406c-0.242 17.951-14.73 32.439-32.658 32.681h-0.023zM958.638 589.617h-305.021v305.021h305.021zM403.064 371.745h-370.383c-17.951-0.242-32.439-14.73-32.681-32.658v-370.406c0.242-17.951 14.73-32.439 32.658-32.681h370.406c17.951 0.242 32.439 14.73 32.681 32.658v370.406c-0.242 17.951-14.73 32.439-32.658 32.681h-0.023zM370.383 1.362h-305.021v305.021h305.021zM991.319 371.745h-370.383c-17.951-0.242-32.439-14.73-32.681-32.658v-370.406c0.242-17.951 14.73-32.439 32.658-32.681h370.406c17.951 0.242 32.439 14.73 32.681 32.658v370.406c-0.242 17.951-14.73 32.439-32.658 32.681h-0.023zM958.638 1.362h-305.021v305.021h305.021z" />
<glyph unicode="&#xe917;" glyph-name="icon_arrow_down_vb_mouse_hover" horiz-adv-x="1928" d="M963.765-64c-0.103-0.001-0.226-0.001-0.348-0.001-16.547 0-31.536 6.672-42.423 17.473l-903.525 903.525c-10.945 10.945-17.715 26.065-17.715 42.767 0 33.403 27.079 60.482 60.482 60.482 16.702 0 31.822-6.77 42.767-17.715v0l860.762-861.365 860.762 861.365c10.945 10.945 26.065 17.715 42.767 17.715 33.403 0 60.482-27.079 60.482-60.482 0-16.702-6.77-31.822-17.715-42.767l-903.529-903.529c-10.883-10.797-25.872-17.469-42.419-17.469-0.122 0-0.245 0-0.367 0.001h0.019z" />
<glyph unicode="&#xe918;" glyph-name="icon_thumbnail_f" d="M403.064 960h-370.383c-17.951-0.242-32.439-14.73-32.681-32.658v-457.555c0.242-17.951 14.73-32.439 32.658-32.681h370.406c17.951 0.242 32.439 14.73 32.681 32.658v457.555c-0.242 17.951-14.73 32.439-32.658 32.681h-0.023zM370.383 502.468h-305.021v392.17h305.021zM991.319 960h-370.383c-17.951-0.242-32.439-14.73-32.681-32.658v-283.257c0.242-17.951 14.73-32.439 32.658-32.681h370.406c17.951 0.242 32.439 14.73 32.681 32.658v283.257c-0.242 17.951-14.73 32.439-32.658 32.681h-0.023zM958.638 676.766h-305.021v217.872h305.021zM403.064 284.596h-370.383c-17.951-0.242-32.439-14.73-32.681-32.658v-283.257c0.242-17.951 14.73-32.439 32.658-32.681h370.406c17.951 0.242 32.439 14.73 32.681 32.658v283.257c-0.242 17.951-14.73 32.439-32.658 32.681h-0.023zM370.383 1.362h-305.021v217.872h305.021zM991.319 458.894h-370.383c-17.951-0.242-32.439-14.73-32.681-32.658v-457.555c0.242-17.951 14.73-32.439 32.658-32.681h370.406c17.951 0.242 32.439 14.73 32.681 32.658v457.555c-0.242 17.951-14.73 32.439-32.658 32.681h-0.023zM958.638 1.362h-305.021v392.17h305.021z" />
<glyph unicode="&#xe919;" glyph-name="icon_CV_b_mouse_hover" d="M992 960h-960c-17.577-0.237-31.763-14.423-32-31.977v-960.023c0.237-17.577 14.423-31.763 31.977-32h960.023c17.577 0.237 31.763 14.423 32 31.977v960.023c-0.237 17.577-14.423 31.763-31.977 32h-0.023zM960 0h-896v896h896zM718.080 242.347l142.507 411.307h-80.213l-59.733-188.16c-16.213-49.92-31.147-100.267-42.667-148.907v0c-11.093 49.92-24.747 98.133-42.667 150.187l-54.187 186.88h-82.347l133.547-411.307zM373.333 234.667c1.214-0.017 2.648-0.027 4.083-0.027 28.896 0 56.88 3.903 83.455 11.21l-2.205-0.517v64.427c-21.736-7.042-46.746-11.101-72.704-11.101-0.69 0-1.379 0.003-2.068 0.009l0.105-0.001c-2.281-0.138-4.948-0.216-7.633-0.216-74.463 0-134.827 60.364-134.827 134.827 0 5.187 0.293 10.305 0.863 15.34l-0.057-0.617c-0.394 3.905-0.619 8.439-0.619 13.026 0 75.877 61.51 137.387 137.387 137.387 2.769 0 5.52-0.082 8.249-0.244l-0.376 0.018c0.301 0.002 0.658 0.003 1.014 0.003 25.057 0 49.054-4.538 71.214-12.836l-1.402 0.46v65.28c-22.101 6.402-47.5 10.134-73.754 10.24h-0.059c-4.032 0.28-8.738 0.44-13.481 0.44-114.286 0-206.933-92.647-206.933-206.933 0-3.606 0.092-7.191 0.275-10.752l-0.020 0.499c-0.445-4.928-0.698-10.661-0.698-16.452 0-107.217 86.916-194.133 194.133-194.133 5.652 0 11.249 0.242 16.778 0.715l-0.72-0.050z" />
<glyph unicode="&#xe91a;" glyph-name="icon_form" horiz-adv-x="1027" d="M909.215 221.829s0 0 0 2.643v104.968c0 93.005-75.396 168.401-168.401 168.401v0h-198.985v176.708c66.567 13.68 115.917 71.791 115.917 141.429 0 79.659-64.577 144.236-144.236 144.236s-144.236-64.577-144.236-144.236c0-69.637 49.35-127.749 114.985-141.268l0.932-0.16v-176.708h-199.363c-93.005 0-168.401-75.396-168.401-168.401v0-104.968c-0.107-0.397-0.168-0.852-0.168-1.322s0.061-0.925 0.176-1.358l-0.008 0.037c-66.727-13.372-116.295-71.494-116.295-141.193 0-79.451 64.408-143.858 143.858-143.858s143.858 64.408 143.858 143.858c0 69.699-49.568 127.821-115.375 141.039l-0.92 0.154c0.081 0.454 0.127 0.977 0.127 1.51s-0.046 1.056-0.135 1.564l0.008-0.054v104.59c0 62.56 50.715 113.274 113.274 113.274v0h455.363c62.56 0 113.274-50.715 113.274-113.274v0-104.968s0-1.888 0-3.021c-67.056-13.459-116.861-71.876-116.861-141.926 0-79.868 64.746-144.614 144.614-144.614s144.614 64.746 144.614 144.614c0 70.049-49.805 128.466-115.936 141.77l-0.926 0.155zM425.912 815.764c0 48.379 39.219 87.599 87.599 87.599s87.599-39.219 87.599-87.599c0-48.379-39.219-87.599-87.599-87.599v0c-48.379 0-87.599 39.219-87.599 87.599v0zM231.835 80.236c0.002-0.224 0.003-0.49 0.003-0.755 0-48.379-39.219-87.599-87.599-87.599s-87.599 39.219-87.599 87.599c0 48.378 39.217 87.597 87.595 87.599v0c0.001 0 0.002 0 0.003 0 48.114 0 87.168-38.79 87.595-86.803v-0.040zM883.162-7.363c-0.112-0.001-0.245-0.001-0.378-0.001-48.379 0-87.599 39.219-87.599 87.599s39.219 87.599 87.599 87.599c48.379 0 87.598-39.219 87.599-87.598v0c0 0 0-0.001 0-0.001 0-48.247-39.004-87.384-87.201-87.598h-0.020z" />
<glyph unicode="&#xe91b;" glyph-name="icon_arrow_right_b" horiz-adv-x="536" d="M24.381-64c-0.034 0-0.074 0-0.114 0-6.696 0-12.752 2.735-17.113 7.15l-0.002 0.002c-4.406 4.411-7.13 10.502-7.13 17.229s2.725 12.818 7.131 17.229v0l470.39 470.39-470.39 470.39c-4.054 4.342-6.544 10.191-6.544 16.621 0 13.465 10.916 24.381 24.381 24.381 6.43 0 12.279-2.489 16.635-6.557l-0.014 0.013 487.619-487.619c4.406-4.411 7.13-10.502 7.13-17.229s-2.725-12.818-7.131-17.229v0l-487.619-487.619c-4.364-4.417-10.42-7.152-17.116-7.152-0.040 0-0.080 0-0.12 0h0.006z" />
<glyph unicode="&#xe91c;" horiz-adv-x="1719" d="M457.143 855.406h708.754c208.24 0 377.051-168.812 377.051-377.051s-168.812-377.051-377.051-377.051h-708.754c-208.24 0-377.051 168.812-377.051 377.051s168.812 377.051 377.051 377.051z" />
<glyph unicode="&#xe91d;" horiz-adv-x="1719" d="M1165.897 892.343v0h-708.389c-228.438 0-413.623-185.185-413.623-413.623s185.185-413.623 413.623-413.623v0 0h708.754c228.074 1.036 412.637 185.856 413.257 413.929v0.060c-0.623 228.113-185.48 412.842-413.583 413.257h-0.040zM457.143 137.509c-163.676 0.115-300.351 115.581-333.133 269.494l-0.398 2.232c-4.421 20.057-6.953 43.096-6.953 66.726 0 0.585 0.002 1.169 0.005 1.753v-0.090c0 0.109 0 0.237 0 0.366 0 187.913 152.23 340.272 340.095 340.48h0.020c0.040 0 0.087 0 0.134 0 188.042 0 340.48-152.438 340.48-340.48 0-93.963-38.063-179.037-99.611-240.643l0.003 0.003c-61.236-61.669-146.065-99.841-239.809-99.841-0.292 0-0.584 0-0.876 0.001h0.045zM1165.897 137.509h-475.429c21.639 15.198 40.629 31.055 58.213 48.337l-0.064-0.063c74.82 74.901 121.092 178.332 121.092 292.571s-46.272 217.67-121.095 292.575l0.003-0.003c-17.361 17.217-36.24 32.963-56.4 46.997l-1.383 0.911h475.429c188.042 0 340.48-152.438 340.48-340.48s-152.438-340.48-340.48-340.48v0z" />
<glyph unicode="&#xe91e;" glyph-name="icon_CV_w_mouse_hover" d="M992 960h-960c-17.577-0.237-31.763-14.423-32-31.977v-960.023c0.237-17.577 14.423-31.763 31.977-32h960.023c17.577 0.237 31.763 14.423 32 31.977v960.023c-0.237 17.577-14.423 31.763-31.977 32h-0.023zM960 0h-896v896h896zM718.080 242.347l142.507 411.307h-80.213l-59.733-188.16c-16.213-49.92-31.147-100.267-42.667-148.907v0c-11.093 49.92-24.747 98.133-42.667 150.187l-54.187 186.88h-82.347l133.547-411.307zM373.333 234.667c1.214-0.017 2.648-0.027 4.083-0.027 28.896 0 56.88 3.903 83.455 11.21l-2.205-0.517v64.427c-21.736-7.042-46.746-11.101-72.704-11.101-0.69 0-1.379 0.003-2.068 0.009l0.105-0.001c-2.281-0.138-4.948-0.216-7.633-0.216-74.463 0-134.827 60.364-134.827 134.827 0 5.187 0.293 10.305 0.863 15.34l-0.057-0.617c-0.394 3.905-0.619 8.439-0.619 13.026 0 75.877 61.51 137.387 137.387 137.387 2.769 0 5.52-0.082 8.249-0.244l-0.376 0.018c0.301 0.002 0.658 0.003 1.014 0.003 25.057 0 49.054-4.538 71.214-12.836l-1.402 0.46v65.28c-22.101 6.402-47.5 10.134-73.754 10.24h-0.059c-4.032 0.28-8.738 0.44-13.481 0.44-114.286 0-206.933-92.647-206.933-206.933 0-3.606 0.092-7.191 0.275-10.752l-0.020 0.499c-0.445-4.928-0.698-10.661-0.698-16.452 0-107.217 86.916-194.133 194.133-194.133 5.652 0 11.249 0.242 16.778 0.715l-0.72-0.050z" />
<glyph unicode="&#xe91f;" glyph-name="icon_CV" d="M992 960h-960c-17.577-0.237-31.763-14.423-32-31.977v-960.023c0.237-17.577 14.423-31.763 31.977-32h960.023c17.577 0.237 31.763 14.423 32 31.977v960.023c-0.237 17.577-14.423 31.763-31.977 32h-0.023zM960 0h-896v896h896zM718.080 242.347l142.507 411.307h-80.213l-59.733-188.16c-16.213-49.92-31.147-100.267-42.667-148.907v0c-11.093 49.92-24.747 98.133-42.667 150.187l-54.187 186.88h-82.347l133.547-411.307zM373.333 234.667c1.214-0.017 2.648-0.027 4.083-0.027 28.896 0 56.88 3.903 83.455 11.21l-2.205-0.517v64.427c-21.736-7.042-46.746-11.101-72.704-11.101-0.69 0-1.379 0.003-2.068 0.009l0.105-0.001c-2.281-0.138-4.948-0.216-7.633-0.216-74.463 0-134.827 60.364-134.827 134.827 0 5.187 0.293 10.305 0.863 15.34l-0.057-0.617c-0.394 3.905-0.619 8.439-0.619 13.026 0 75.877 61.51 137.387 137.387 137.387 2.769 0 5.52-0.082 8.249-0.244l-0.376 0.018c0.301 0.002 0.658 0.003 1.014 0.003 25.057 0 49.054-4.538 71.214-12.836l-1.402 0.46v65.28c-22.101 6.402-47.5 10.134-73.754 10.24h-0.059c-4.032 0.28-8.738 0.44-13.481 0.44-114.286 0-206.933-92.647-206.933-206.933 0-3.606 0.092-7.191 0.275-10.752l-0.020 0.499c-0.445-4.928-0.698-10.661-0.698-16.452 0-107.217 86.916-194.133 194.133-194.133 5.652 0 11.249 0.242 16.778 0.715l-0.72-0.050z" />
<glyph unicode="&#xe920;" glyph-name="icon_event_date" horiz-adv-x="1137" d="M1100.901 818.34h-192.253v105.233c0 20.118-16.309 36.427-36.427 36.427s-36.427-16.309-36.427-36.427v0-105.233h-534.261v105.233c0 20.118-16.309 36.427-36.427 36.427s-36.427-16.309-36.427-36.427v0-105.233h-192.253c-20.118 0-36.427-16.309-36.427-36.427v0-809.486c0-20.118 16.309-36.427 36.427-36.427v0h1064.474c20.118 0 36.427 16.309 36.427 36.427v0 809.486c0 20.118-16.309 36.427-36.427 36.427v0zM1064.474 8.854h-991.621v736.632h155.826v-105.233c0-20.118 16.309-36.427 36.427-36.427s36.427 16.309 36.427 36.427v0 105.233h534.261v-105.233c0-20.118 16.309-36.427 36.427-36.427s36.427 16.309 36.427 36.427v0 105.233h155.826zM892.458 263.842h-647.589c-20.118 0-36.427-16.309-36.427-36.427s16.309-36.427 36.427-36.427v0h647.589c20.118 0 36.427 16.309 36.427 36.427s-16.309 36.427-36.427 36.427v0zM244.87 514.783c-20.118 0-36.427-16.309-36.427-36.427s16.309-36.427 36.427-36.427v0h647.589c20.118 0 36.427 16.309 36.427 36.427s-16.309 36.427-36.427 36.427v0z" />
<glyph unicode="&#xe921;" glyph-name="icon_thumbnail_f_b_mouse_hover-on" d="M403.064 960h-370.383c-17.951-0.242-32.439-14.73-32.681-32.658v-457.555c0.242-17.951 14.73-32.439 32.658-32.681h370.406c17.951 0.242 32.439 14.73 32.681 32.658v457.555c-0.242 17.951-14.73 32.439-32.658 32.681h-0.023zM370.383 502.468h-305.021v392.17h305.021zM991.319 960h-370.383c-17.951-0.242-32.439-14.73-32.681-32.658v-283.257c0.242-17.951 14.73-32.439 32.658-32.681h370.406c17.951 0.242 32.439 14.73 32.681 32.658v283.257c-0.242 17.951-14.73 32.439-32.658 32.681h-0.023zM958.638 676.766h-305.021v217.872h305.021zM403.064 284.596h-370.383c-17.951-0.242-32.439-14.73-32.681-32.658v-283.257c0.242-17.951 14.73-32.439 32.658-32.681h370.406c17.951 0.242 32.439 14.73 32.681 32.658v283.257c-0.242 17.951-14.73 32.439-32.658 32.681h-0.023zM370.383 1.362h-305.021v217.872h305.021zM991.319 458.894h-370.383c-17.951-0.242-32.439-14.73-32.681-32.658v-457.555c0.242-17.951 14.73-32.439 32.658-32.681h370.406c17.951 0.242 32.439 14.73 32.681 32.658v457.555c-0.242 17.951-14.73 32.439-32.658 32.681h-0.023zM958.638 1.362h-305.021v392.17h305.021z" />
<glyph unicode="&#xe922;" glyph-name="icon_research_2_vb" horiz-adv-x="1092" d="M1077.895 6.602l-195.638 173.541c59.61 79.656 95.448 180.111 95.448 288.937 0 267.887-217.165 485.053-485.053 485.053s-485.053-217.165-485.053-485.053c0-267.887 217.165-485.053 485.053-485.053 130.364 0 248.716 51.428 335.875 135.103l-0.165-0.158 195.638-172.733c7.081-6.384 16.504-10.29 26.84-10.29 12.065 0 22.887 5.322 30.248 13.746l0.040 0.047c6.374 7.078 10.273 16.495 10.273 26.822 0 11.931-5.204 22.647-13.466 30.001l-0.040 0.035zM489.634 61.844c-0.080 0-0.175 0-0.269 0-225.769 0-408.792 183.022-408.792 408.792s183.022 408.792 408.792 408.792c225.769 0 408.792-183.022 408.792-408.792 0-0.095 0-0.189 0-0.284v0.014c-0.306-225.497-183.025-408.215-408.492-408.522h-0.030z" />
<glyph unicode="&#xe923;" glyph-name="icon_arrow_right_w" horiz-adv-x="536" d="M24.381-64c-0.034 0-0.074 0-0.114 0-6.696 0-12.752 2.735-17.113 7.15l-0.002 0.002c-4.406 4.411-7.13 10.502-7.13 17.229s2.725 12.818 7.131 17.229v0l470.39 470.39-470.39 470.39c-4.054 4.342-6.544 10.191-6.544 16.621 0 13.465 10.916 24.381 24.381 24.381 6.43 0 12.279-2.489 16.635-6.557l-0.014 0.013 487.619-487.619c4.406-4.411 7.13-10.502 7.13-17.229s-2.725-12.818-7.131-17.229v0l-487.619-487.619c-4.364-4.417-10.42-7.152-17.116-7.152-0.040 0-0.080 0-0.12 0h0.006z" />
<glyph unicode="&#xe924;" glyph-name="icon_events_vb" horiz-adv-x="1107" d="M1069.419 794.839h-266.323v128c0 20.524-16.638 37.161-37.161 37.161s-37.161-16.638-37.161-37.161v-128h-386.065v128c0 20.524-16.638 37.161-37.161 37.161s-37.161-16.638-37.161-37.161v0-128h-231.226c-20.524 0-37.161-16.638-37.161-37.161v0-784.516c0-20.524 16.638-37.161 37.161-37.161v0h1032.258c20.524 0 37.161 16.638 37.161 37.161v0 784.516c0 20.524-16.638 37.161-37.161 37.161v0zM1032.258 10.323h-957.935v710.194h194.065v-82.581c0-20.524 16.638-37.161 37.161-37.161s37.161 16.638 37.161 37.161v0 82.581h386.065v-82.581c0-20.524 16.638-37.161 37.161-37.161s37.161 16.638 37.161 37.161v0 82.581h229.161zM756.439 495.071l-251.458-251.871-152.361 152.361c-6.747 6.798-16.095 11.007-26.426 11.007-20.559 0-37.226-16.667-37.226-37.226 0-10.228 4.125-19.493 10.803-26.222l178.785-178.785c6.828-6.618 16.151-10.698 26.426-10.698s19.598 4.080 26.436 10.707l277.874 277.874c8.511 6.944 13.903 17.432 13.903 29.18 0 20.752-16.823 37.574-37.574 37.574-11.748 0-22.236-5.391-29.127-13.835l-0.054-0.068z" />
<glyph unicode="&#xe925;" glyph-name="icon_logout" horiz-adv-x="839" d="M836.149 944.463s0 0-1.766 2.825c-1.524 2.245-3.15 4.208-4.944 6.003v0h-2.472l-7.415 6.709h-793.070c-14.546-0.196-26.287-11.936-26.483-26.464v-829.459c0-0.001 0-0.001 0-0.002 0-14.697 11.814-26.634 26.464-26.833h227.771v-115.112c0-0.001 0-0.002 0-0.003 0-8.528 4.141-16.088 10.522-20.78l0.071-0.050c4.241-3.525 9.744-5.664 15.746-5.664 2.571 0 5.050 0.393 7.381 1.121l-0.175-0.047 531.421 140.535c11.257 3.189 19.373 13.352 19.421 25.418v830.857c-0.069 3.981-0.973 7.735-2.543 11.116l0.071-0.17zM274.008 818.759c-11.405-3.059-19.681-13.262-19.774-25.413v-662.786h-201.269v776.474h557.197zM785.655 124.557l-478.455-127.47v774.356l478.455 127.47zM426.196 298.99c14.626 0 26.483 11.857 26.483 26.483v0 171.961c0 14.626-11.857 26.483-26.483 26.483s-26.483-11.857-26.483-26.483v0-173.021c0.765-14.092 12.293-25.251 26.466-25.423h0.017z" />
<glyph unicode="&#xe926;" glyph-name="icon_arrow_right_vb_mouse_hover" horiz-adv-x="544" d="M32-64c-0.055 0-0.12-0.001-0.185-0.001-8.791 0-16.753 3.545-22.537 9.283l0.002-0.002c-5.846 5.8-9.466 13.837-9.466 22.72s3.619 16.92 9.463 22.718l457.602 457.282-457.6 457.28c-5.815 5.815-9.411 13.847-9.411 22.72 0 17.745 14.386 32.131 32.131 32.131 8.873 0 16.905-3.596 22.72-9.411l480-480c5.846-5.8 9.466-13.837 9.466-22.72s-3.619-16.92-9.463-22.718l-480.002-480.002c-5.782-5.736-13.744-9.281-22.535-9.281-0.065 0-0.13 0-0.195 0.001h0.010z" />
<glyph unicode="&#xe927;" glyph-name="icon_arrow_down_b" horiz-adv-x="1955" d="M977.455-64c-0.064 0-0.141-0.001-0.217-0.001-12.782 0-24.345 5.222-32.671 13.649l-0.004 0.005-930.909 930.909c-7.74 8.29-12.492 19.455-12.492 31.731 0 25.706 20.839 46.545 46.545 46.545 12.276 0 23.442-4.752 31.758-12.517l-0.027 0.025 898.017-898.017 898.017 898.017c8.29 7.74 19.455 12.492 31.731 12.492 25.706 0 46.545-20.839 46.545-46.545 0-12.276-4.752-23.442-12.517-31.758l0.025 0.027-930.909-930.909c-8.33-8.432-19.893-13.654-32.675-13.654-0.076 0-0.152 0-0.229 0.001h0.012z" />
<glyph unicode="&#xe928;" glyph-name="icon_print_vb_mouse_hover" horiz-adv-x="1056" d="M1027.091 725.060h-176.978v205.959c0 0.001 0 0.002 0 0.003 0 16.006-12.975 28.981-28.981 28.981-0.136 0-0.272-0.001-0.407-0.003h-585.398c-15.919-0.215-28.766-13.062-28.981-28.961v-205.979h-177.365c-16.006 0-28.981-12.975-28.981-28.981v0-516.251c0-16.006 12.975-28.981 28.981-28.981v0h177.365v-185.866c0.215-15.919 13.062-28.766 28.961-28.981h585.439c16.006 0 28.981 12.975 28.981 28.981v0 185.866h177.365c0.116-0.002 0.252-0.003 0.389-0.003 15.792 0 28.595 12.802 28.595 28.595 0 0.137-0.001 0.273-0.003 0.41v-0.021 516.251c0.002 0.116 0.003 0.252 0.003 0.389 0 15.792-12.802 28.595-28.595 28.595-0.137 0-0.273-0.001-0.41-0.003h0.021zM264.308 902.038h527.457v-176.978h-527.457zM791.765-6.038h-527.457v373.663h527.457zM998.11 208.809h-147.997v187.798c0.002 0.116 0.003 0.252 0.003 0.389 0 15.792-12.802 28.595-28.595 28.595-0.137 0-0.273-0.001-0.41-0.003h-585.784c-16.006 0-28.981-12.975-28.981-28.981v0-187.798h-148.383v458.288h940.148z" />
<glyph unicode="&#xe929;" horiz-adv-x="1783" d="M474.074 876.184h735.004c215.952 0 391.016-175.064 391.016-391.016s-175.064-391.016-391.016-391.016h-735.004c-215.952 0-391.016 175.064-391.016 391.016s175.064 391.016 391.016 391.016z" />
<glyph unicode="&#xe92a;" horiz-adv-x="1783" d="M1209.079 914.489v0h-734.625c0 0 0 0-0.001 0-237.108 0-429.321-192.214-429.321-429.321 0-0.267 0-0.533 0.001-0.8v0.041c0-0.072 0-0.157 0-0.242 0-15.411 0.827-30.628 2.438-45.611l-0.162 1.859c10.787-101.968 55.999-191.744 123.621-259.016l0.018-0.018 9.102-8.344c7.206-6.827 14.033-13.274 21.239-19.342 73.255-61.121 168.399-98.228 272.21-98.228 0.168 0 0.336 0 0.504 0h734.978c231.554 7.101 416.563 196.511 416.563 429.132s-185.008 422.031-415.911 429.116l-0.652 0.016zM474.074 131.319c-169.684 0.272-311.341 119.939-345.468 279.469l-0.416 2.321c-4.584 20.977-7.209 45.073-7.209 69.782 0 0.534 0.001 1.068 0.004 1.601v-0.082c0.214 194.863 157.908 352.823 352.649 353.469h0.062c190.171-6.427 341.893-162.135 341.893-353.28s-151.722-346.853-341.306-353.264l-0.587-0.016zM1209.079 131.319h-493.037c112.599 78.61 185.365 207.532 185.458 353.455v0.014c0.002 0.461 0.003 1.007 0.003 1.552 0 118.043-48.151 224.84-125.883 301.822l-0.034 0.033c-17.948 17.993-37.537 34.331-58.529 48.777l-1.394 0.906h493.037c190.171-6.427 341.893-162.135 341.893-353.28s-151.722-346.853-341.306-353.264l-0.587-0.016z" />
<glyph unicode="&#xe92b;" glyph-name="icon_thumbnail_square_w_mouse_hover-on" d="M403.064 960h-370.383c-17.951-0.242-32.439-14.73-32.681-32.658v-370.406c0.242-17.951 14.73-32.439 32.658-32.681h370.406c17.951 0.242 32.439 14.73 32.681 32.658v370.406c-0.242 17.951-14.73 32.439-32.658 32.681h-0.023zM370.383 589.617h-305.021v305.021h305.021zM991.319 960h-370.383c-17.951-0.242-32.439-14.73-32.681-32.658v-370.406c0.242-17.951 14.73-32.439 32.658-32.681h370.406c17.951 0.242 32.439 14.73 32.681 32.658v370.406c-0.242 17.951-14.73 32.439-32.658 32.681h-0.023zM958.638 589.617h-305.021v305.021h305.021zM403.064 371.745h-370.383c-17.951-0.242-32.439-14.73-32.681-32.658v-370.406c0.242-17.951 14.73-32.439 32.658-32.681h370.406c17.951 0.242 32.439 14.73 32.681 32.658v370.406c-0.242 17.951-14.73 32.439-32.658 32.681h-0.023zM370.383 1.362h-305.021v305.021h305.021zM991.319 371.745h-370.383c-17.951-0.242-32.439-14.73-32.681-32.658v-370.406c0.242-17.951 14.73-32.439 32.658-32.681h370.406c17.951 0.242 32.439 14.73 32.681 32.658v370.406c-0.242 17.951-14.73 32.439-32.658 32.681h-0.023zM958.638 1.362h-305.021v305.021h305.021z" />
<glyph unicode="&#xe92c;" glyph-name="icon_check_w" horiz-adv-x="1092" d="M1077.895 6.602l-195.638 173.541c59.61 79.656 95.448 180.111 95.448 288.937 0 267.887-217.165 485.053-485.053 485.053s-485.053-217.165-485.053-485.053c0-267.887 217.165-485.053 485.053-485.053 130.364 0 248.716 51.428 335.875 135.103l-0.165-0.158 195.638-172.733c7.081-6.384 16.504-10.29 26.84-10.29 12.065 0 22.887 5.322 30.248 13.746l0.040 0.047c6.374 7.078 10.273 16.495 10.273 26.822 0 11.931-5.204 22.647-13.466 30.001l-0.040 0.035zM489.634 61.844c-0.080 0-0.175 0-0.269 0-225.769 0-408.792 183.022-408.792 408.792s183.022 408.792 408.792 408.792c225.769 0 408.792-183.022 408.792-408.792 0-0.095 0-0.189 0-0.284v0.014c-0.306-225.497-183.025-408.215-408.492-408.522h-0.030z" />
<glyph unicode="&#xe92d;" horiz-adv-x="1719" d="M457.143 855.406h708.754c208.24 0 377.051-168.812 377.051-377.051s-168.812-377.051-377.051-377.051h-708.754c-208.24 0-377.051 168.812-377.051 377.051s168.812 377.051 377.051 377.051z" />
<glyph unicode="&#xe92e;" horiz-adv-x="1719" d="M457.143 64.366v0h708.754c228.325 0.416 413.257 185.605 413.257 413.988 0 0 0 0.001 0 0.001v0c0 0.194 0.001 0.424 0.001 0.653 0 43.665-6.957 85.705-19.822 125.072l0.805-2.845c-53.844 169.778-209.867 290.73-394.195 291.108h-708.434c-228.729-0.417-413.989-185.933-413.989-414.719 0 0 0-0.001 0-0.001v0c0.416-228.197 185.397-413.050 413.603-413.257h0.020zM1165.897 819.2c163.573-0.409 300.093-115.729 333.127-269.481l0.404-2.244c4.352-20.53 6.879-44.144 6.948-68.335v-0.053c0-188.116-152.394-340.638-340.46-340.846h-0.020c-0.149 0-0.324 0-0.5 0-188.042 0-340.48 152.438-340.48 340.48 0 93.964 38.063 179.037 99.612 240.643l-0.003-0.003c61.348 61.673 146.273 99.841 240.113 99.841 0.314 0 0.627 0 0.941-0.001h-0.049zM456.777 819.2h475.429c-21.586-14.803-40.476-30.558-57.774-47.9l-0.009-0.009c-74.908-74.861-121.243-178.305-121.243-292.571s46.335-217.711 121.241-292.569l0.002-0.002c17.498-17.084 36.489-32.824 56.694-46.945l1.455-0.963h-475.429c-188.042 0-340.48 152.438-340.48 340.48s152.438 340.48 340.48 340.48v0z" />
<glyph unicode="&#xe92f;" glyph-name="icon_size" d="M1021.66 459.308c-2.172 3.604-4.76 6.689-7.755 9.321l-0.044 0.038-137.261 140.381c-5.209 4.863-12.224 7.849-19.938 7.849-16.152 0-29.246-13.094-29.246-29.246 0-7.713 2.986-14.729 7.865-19.955l-0.016 0.017 88.518-88.908h-382.538v381.368l88.518-88.908c5.304-5.256 12.606-8.504 20.667-8.504 16.218 0 29.366 13.148 29.366 29.366 0 8.158-3.326 15.538-8.697 20.86l-138.433 138.433h-2.73l-6.629 6.239c-3.334 1.459-7.218 2.317-11.3 2.34h-0.008c-1.466 0.279-3.151 0.439-4.874 0.439s-3.409-0.16-5.043-0.465l0.169 0.026c-3.767-1.559-6.997-3.664-9.767-6.256l0.018 0.017-141.551-141.161c-5.285-5.291-8.553-12.598-8.553-20.667s3.268-15.376 8.553-20.667v0c5.369-5.162 12.624-8.398 20.632-8.578l0.035-0.001c8.058 0.097 15.337 3.352 20.672 8.584l88.903 88.903v-382.928h-381.368l88.518 88.908c5.875 5.303 9.551 12.946 9.551 21.447s-3.676 16.144-9.525 21.425l-0.025 0.022c-5.291 5.285-12.598 8.553-20.667 8.553s-15.376-3.268-20.667-8.553v0l-138.431-140.381c-2.713-2.541-4.84-5.672-6.183-9.19l-0.056-0.169c-1.471-3.272-2.328-7.093-2.328-11.113s0.857-7.841 2.399-11.289l-0.070 0.176c1.298-3.855 3.444-7.132 6.226-9.737l0.013-0.012 138.431-138.431c5.234-5.298 12.499-8.579 20.531-8.579 0.048 0 0.096 0 0.144 0h-0.007c0.186-0.004 0.405-0.007 0.625-0.007 7.88 0 14.99 3.292 20.032 8.575l0.010 0.011c5.381 5.247 8.718 12.567 8.718 20.667s-3.337 15.42-8.712 20.661l-88.524 88.524h382.928v-382.928l-88.908 88.908c-5.426 5.624-13.028 9.117-21.447 9.117-16.449 0-29.784-13.335-29.784-29.784 0-8.031 3.178-15.319 8.346-20.676l-0.009 0.009 140.381-137.261c2.63-2.572 5.732-4.674 9.162-6.163l0.197-0.076c3.305-1.479 7.162-2.34 11.221-2.34 0.031 0 0.061 0 0.092 0h-0.005c3.957 0.033 7.706 0.891 11.094 2.41l-0.175-0.070c3.798 1.46 7.044 3.579 9.752 6.243l-0.004-0.004 138.431 138.821c5.381 5.247 8.718 12.567 8.718 20.667s-3.337 15.42-8.712 20.661l-0.006 0.006c-5.291 5.285-12.598 8.553-20.667 8.553s-15.376-3.268-20.667-8.553v0l-88.518-90.468v382.928h382.538l-88.518-88.518c-5.285-5.291-8.553-12.598-8.553-20.667s3.268-15.376 8.553-20.667v0c5.291-5.285 12.598-8.553 20.667-8.553s15.376 3.268 20.667 8.553v0l137.261 138.431c2.525 2.775 4.623 5.998 6.152 9.524l0.087 0.224c1.836 3.856 2.909 8.379 2.909 13.153 0 3.237-0.493 6.359-1.408 9.295l0.059-0.221z" />
<glyph unicode="&#xe930;" glyph-name="icon_delete" d="M557.12 448l457.6 457.28c5.815 5.815 9.411 13.847 9.411 22.72 0 17.745-14.386 32.131-32.131 32.131-8.873 0-16.905-3.596-22.72-9.411l-457.28-457.6-457.28 457.6c-5.815 5.815-13.847 9.411-22.72 9.411-17.745 0-32.131-14.386-32.131-32.131 0-8.873 3.596-16.905 9.411-22.72l457.6-457.28-457.6-457.28c-5.846-5.8-9.466-13.837-9.466-22.72s3.619-16.92 9.463-22.718l0.002-0.002c5.8-5.846 13.837-9.466 22.72-9.466s16.92 3.619 22.718 9.463l457.282 457.602 457.28-457.6c5.8-5.846 13.837-9.466 22.72-9.466s16.92 3.619 22.718 9.463l0.002 0.002c5.846 5.8 9.466 13.837 9.466 22.72s-3.619 16.92-9.463 22.718l-0.002 0.002z" />
<glyph unicode="&#xe931;" glyph-name="icon_arrow_down_w" horiz-adv-x="1955" d="M977.455-64c-0.064 0-0.141-0.001-0.217-0.001-12.782 0-24.345 5.222-32.671 13.649l-0.004 0.005-930.909 930.909c-7.74 8.29-12.492 19.455-12.492 31.731 0 25.706 20.839 46.545 46.545 46.545 12.276 0 23.442-4.752 31.758-12.517l-0.027 0.025 898.017-898.017 898.017 898.017c8.29 7.74 19.455 12.492 31.731 12.492 25.706 0 46.545-20.839 46.545-46.545 0-12.276-4.752-23.442-12.517-31.758l0.025 0.027-930.909-930.909c-8.33-8.432-19.893-13.654-32.675-13.654-0.076 0-0.152 0-0.229 0.001h0.012z" />
<glyph unicode="&#xe932;" glyph-name="logo_home" horiz-adv-x="8170" d="M1254.679 329.236v245.457c0 154.267-72.087 235.725-202.926 235.725-0.496 0.003-1.082 0.005-1.669 0.005-61.32 0-118.368-18.295-165.981-49.724l1.129 0.7-6.848-4.686 26.672-68.843 11.534 8.29c34.825 23.707 77.815 37.852 124.109 37.852 0.592 0 1.183-0.002 1.774-0.007l-0.091 0.001c2.482 0.186 5.376 0.291 8.295 0.291 30.387 0 58.096-11.464 79.038-30.303l-0.108 0.095c23.028-29.958 36.905-67.993 36.905-109.271 0-6.199-0.313-12.325-0.924-18.363l0.062 0.76v-6.127c-122.909 0-216.262-30.277-271.409-84.703-35.252-35.227-57.057-83.906-57.057-137.678 0-2.284 0.039-4.56 0.117-6.825l-0.009 0.329c-0.094-2.101-0.147-4.565-0.147-7.042 0-92.963 75.361-168.324 168.324-168.324 2.841 0 5.665 0.070 8.472 0.209l-0.395-0.016c1.328-0.031 2.892-0.048 4.46-0.048 62.562 0 118.615 27.866 156.426 71.862l0.229 0.273 6.127-62.716h83.261v12.615c-5.968 41.145-9.377 88.653-9.377 136.957 0 1.144 0.002 2.287 0.006 3.43v-0.177zM1167.093 381.139c0.001-0.197 0.002-0.431 0.002-0.664 0-11.583-1.713-22.766-4.899-33.31l0.211 0.814c-16.114-61.616-71.284-106.346-136.902-106.346-0.783 0-1.565 0.006-2.345 0.019l0.118-0.002c-45.775 0-94.434 28.835-94.434 108.131-0.059 1.415-0.093 3.076-0.093 4.744 0 33.819 13.821 64.411 36.124 86.434l0.013 0.012c36.044 36.044 102.364 54.065 195.717 54.065h7.209zM368.727 491.433c35.252 35.227 57.057 83.906 57.057 137.678 0 2.284-0.039 4.56-0.117 6.825l0.009-0.329c0.073 1.848 0.114 4.017 0.114 6.196 0 93.162-75.523 168.684-168.684 168.684-1.688 0-3.37-0.025-5.046-0.074l0.246 0.006c-1.159 0.024-2.525 0.037-3.895 0.037-63.94 0-121.059-29.21-158.739-75.013l-0.284-0.355-6.127 62.716h-83.261l1.802-12.615c4.885-37.123 7.673-80.052 7.673-123.632 0-5.068-0.038-10.127-0.113-15.177l0.009 0.763v-245.457c0-154.267 72.087-235.725 202.565-235.725 0.816-0.008 1.78-0.013 2.746-0.013 60.916 0 117.589 18.163 164.9 49.368l-1.124-0.697 7.209 5.046-25.231 68.483-11.534-7.93c-34.825-23.707-77.815-37.852-124.109-37.852-0.592 0-1.183 0.002-1.774 0.007l0.091-0.001c-2.635-0.212-5.706-0.332-8.804-0.332-30.231 0-57.779 11.487-78.517 30.334l0.096-0.086c-23.028 29.958-36.905 67.993-36.905 109.271 0 6.199 0.313 12.325 0.924 18.363l-0.062-0.76v6.127c120.386 1.081 214.099 30.277 268.886 86.144zM96.957 481.701v113.537c-0.001 0.197-0.002 0.431-0.002 0.664 0 11.583 1.713 22.766 4.899 33.31l-0.211-0.814c15.962 61.4 70.899 105.998 136.252 105.998 1.011 0 2.020-0.011 3.026-0.032l-0.15 0.003c45.415 0 94.434-28.474 94.434-108.131 0.059-1.415 0.093-3.076 0.093-4.744 0-33.819-13.821-64.411-36.124-86.434l-0.013-0.012c-36.765-37.485-105.608-55.507-202.205-54.786zM1883.281 541.173c-72.087 36.044-102.004 58.030-102.004 108.131 0.44 47.042 38.677 85.006 85.78 85.006 2.539 0 5.052-0.11 7.535-0.326l-0.322 0.023c0.479 0.005 1.046 0.008 1.613 0.008 37.009 0 71.24-11.893 99.080-32.065l-0.492 0.339 10.813-7.569 33.521 72.087-7.569 5.407c-35.149 22.662-78.081 36.13-124.159 36.13-2.222 0-4.436-0.031-6.643-0.094l0.325 0.007c-108.131 0-187.427-72.087-187.427-171.928 0-72.087 49.019-130.118 149.581-176.253 76.773-36.044 104.166-67.402 104.166-121.828s-43.613-96.597-113.537-96.597c-43.517 1.421-83.671 14.662-117.693 36.594l0.912-0.55-11.174 7.209-30.277-74.25 7.569-5.046c40.309-24.29 88.975-38.659 140.998-38.659 2.511 0 5.014 0.033 7.509 0.1l-0.368-0.008c123.99 0 204.007 72.087 204.007 183.462 0 104.887-76.773 154.988-151.744 189.229zM7047.254 731.844c1.383 0.030 3.013 0.048 4.647 0.048 40.092 0 77.745-10.44 110.39-28.749l-1.139 0.587 11.174-6.127 28.114 74.61-7.569 5.046c-38.552 20.933-84.413 33.239-133.149 33.239-2.356 0-4.705-0.029-7.047-0.086l0.347 0.007c-172.649 0-293.395-134.803-293.395-327.637s110.294-315.742 274.292-315.742c1.375-0.020 2.997-0.032 4.623-0.032 55.24 0 107.365 13.333 153.334 36.957l-1.888-0.881 7.93 4.325-21.626 72.087-11.534-5.407c-34.732-17.505-75.7-27.755-119.062-27.755-0.339 0-0.678 0.001-1.016 0.002h0.052c-118.944 0-196.077 94.074-196.077 240.051-0.068 2.363-0.107 5.143-0.107 7.932 0 61.317 18.764 118.252 50.863 165.376l-0.655-1.019c32.463 44.593 84.488 73.248 143.206 73.248 1.862 0 3.716-0.029 5.564-0.086l-0.27 0.007zM7972.134 810.419c-1.226 0.025-2.671 0.040-4.12 0.040-70.146 0-132.399-33.79-171.371-85.982l-0.402-0.563-3.244 72.087h-82.18v-23.068c2.523-41.090 4.325-76.773 4.325-132.641v-462.080h87.946v385.307c-0.001 0.18-0.001 0.392-0.001 0.605 0 17.454 2.235 34.387 6.436 50.526l-0.307-1.391c14.699 67.14 72.034 117.227 141.649 120.732l0.363 0.015c108.131 0 130.118-98.039 130.118-180.218v-375.575h87.946v385.307c1.081 235.005-164.359 246.899-197.159 246.899zM2703.273 323.83l-167.243 473.974h-85.063l202.565-567.327c2.863-6.010 4.686-13.023 5.041-20.42l0.005-0.125c-0.781-8.893-2.96-17.087-6.322-24.638l0.194 0.488-87.946-249.782h91.551l296.279 861.804h-83.621zM3850.182 331.399v235.725c0 161.476-76.773 247.259-222.389 247.259-0.82 0.007-1.789 0.011-2.76 0.011-67.873 0-131.365-18.761-185.572-51.379l1.626 0.907-7.209-4.686 30.998-92.632 11.894 7.93c37.53 24.411 83.445 38.927 132.75 38.927 0.088 0 0.176 0 0.264 0h-0.014c2.013 0.124 4.365 0.194 6.734 0.194 29.006 0 55.542-10.575 75.963-28.080l-0.158 0.132c19.655-23.269 31.602-53.602 31.602-86.726 0-4.491-0.22-8.931-0.649-13.309l0.044 0.555v-3.604c-122.188 0-216.262-30.998-271.409-86.144-35.706-36.062-57.767-85.692-57.767-140.474 0-2.188 0.035-4.369 0.105-6.54l-0.008 0.317c-0.062-1.756-0.098-3.818-0.098-5.89 0-97.74 79.234-176.974 176.974-176.974 2.316 0 4.622 0.044 6.916 0.133l-0.33-0.010c0.612-0.006 1.335-0.010 2.059-0.010 62.849 0 119.199 27.831 157.396 71.84l0.218 0.257 7.209-58.751h117.142v12.615c-6.43 40.215-10.104 86.58-10.104 133.804 0 1.619 0.004 3.237 0.013 4.854l-0.001-0.25zM3725.471 388.348c0.001-0.216 0.002-0.471 0.002-0.726 0-66.288-53.737-120.025-120.025-120.025-0.381 0-0.761 0.002-1.142 0.005h0.058c-19.464 0-82.54 6.848-82.54 94.074-0.075 1.466-0.117 3.183-0.117 4.91 0 28.34 11.476 53.999 30.035 72.585l-0.001-0.001c32.439 32.079 90.83 47.938 174.091 47.938v0zM4666.21 815.825c-64.781-2.453-120.284-39.87-148.402-93.83l-0.458-0.965-3.244 82.18h-114.619v-11.534c3.604-64.158 5.046-122.188 5.046-176.974v-435.768h126.513v335.566c-0.001 0.273-0.001 0.595-0.001 0.918 0 17.493 1.442 34.65 4.215 51.357l-0.249-1.814c12.976 76.413 62.716 126.153 126.153 126.153 1.002 0.022 2.182 0.035 3.366 0.035 9.378 0 18.568-0.799 27.508-2.334l-0.958 0.136 12.976-2.883v123.63h-8.65c-8.535 3.021-18.451 5.193-28.732 6.095l-0.464 0.033zM5446.916 960h-125.071v-158.232h-116.061v-101.643h116.061v-521.191h125.071v521.191h115.7v101.643h-115.7zM6127.42 403.126c-61.909 0-112.096-50.187-112.096-112.096s50.187-112.096 112.096-112.096c61.909 0 112.096 50.187 112.096 112.096v0c0 61.909-50.187 112.096-112.096 112.096v0z" />
<glyph unicode="&#xe933;" glyph-name="icon_order" horiz-adv-x="1120" d="M390.030 957.269c-3.906 1.687-8.454 2.668-13.23 2.668-9.402 0-17.916-3.801-24.090-9.951l-342.698-342.698c-6.692-6.248-10.864-15.123-10.864-24.972 0-18.851 15.282-34.133 34.133-34.133 9.849 0 18.724 4.171 24.954 10.844l0.018 0.020 284.444 284.444v-873.358c0-18.851 15.282-34.133 34.133-34.133s34.133 15.282 34.133 34.133v0 955.733c0 0.068 0.001 0.148 0.001 0.228 0 14.005-8.549 26.014-20.713 31.092l-0.222 0.082zM1110.471 336.953c-6.175 6.168-14.703 9.982-24.121 9.982s-17.945-3.814-24.121-9.983v0l-284.444-284.444v873.358c0 18.851-15.282 34.133-34.133 34.133s-34.133-15.282-34.133-34.133v0-955.733c0.113-14.155 8.824-26.248 21.163-31.32l0.227-0.083c3.749-1.691 8.124-2.692 12.729-2.731h0.014c9.422 0.009 17.949 3.833 24.121 10.012v0l342.699 342.699c6.28 6.124 10.175 14.667 10.175 24.121s-3.895 17.997-10.168 24.114l-0.007 0.007z" />
<glyph unicode="&#xe934;" glyph-name="icon_research_2_b" horiz-adv-x="1092" d="M1077.895 6.602l-195.638 173.541c59.61 79.656 95.448 180.111 95.448 288.937 0 267.887-217.165 485.053-485.053 485.053s-485.053-217.165-485.053-485.053c0-267.887 217.165-485.053 485.053-485.053 130.364 0 248.716 51.428 335.875 135.103l-0.165-0.158 195.638-172.733c7.081-6.384 16.504-10.29 26.84-10.29 12.065 0 22.887 5.322 30.248 13.746l0.040 0.047c6.374 7.078 10.273 16.495 10.273 26.822 0 11.931-5.204 22.647-13.466 30.001l-0.040 0.035zM489.634 61.844c-0.080 0-0.175 0-0.269 0-225.769 0-408.792 183.022-408.792 408.792s183.022 408.792 408.792 408.792c225.769 0 408.792-183.022 408.792-408.792 0-0.095 0-0.189 0-0.284v0.014c-0.306-225.497-183.025-408.215-408.492-408.522h-0.030z" />
<glyph unicode="&#xe935;" glyph-name="icon_en_w" horiz-adv-x="1849" d="M1068.522-40.568v975.573h135.127l14.059-140.595h5.468c79.978 94.45 195.589 156.583 325.822 165.51l1.451 0.080c204.644 0 298.374-132.784 298.374-382.731v-617.837h-164.027v595.966c0 183.555-55.457 260.882-185.117 260.882-99.979 0-168.714-49.989-267.13-149.187v-707.661zM161.684 524.937h522.545c0 197.614-89.825 303.841-242.136 303.841-138.252 0-260.882-110.914-280.409-303.841zM468.65-64c-258.539 0-468.65 189.022-468.65 510.047s214.017 513.953 440.531 513.953c247.603 0 390.542-179.649 390.542-457.715 0.002-0.513 0.002-1.121 0.002-1.728 0-32.473-2.557-64.349-7.481-95.438l0.448 3.436h-660.796c10.935-208.549 138.252-341.333 323.368-341.333 91.692 0.009 176.547 29.274 245.74 78.97l-1.261-0.861 59.362-107.789c-90.119-62.35-201.414-100.116-321.45-101.537l-0.356-0.003z" />
<glyph unicode="&#xe936;" glyph-name="icon_thumbnail_f_w_mouse_hover-on" d="M403.064 960h-370.383c-17.951-0.242-32.439-14.73-32.681-32.658v-457.555c0.242-17.951 14.73-32.439 32.658-32.681h370.406c17.951 0.242 32.439 14.73 32.681 32.658v457.555c-0.242 17.951-14.73 32.439-32.658 32.681h-0.023zM370.383 502.468h-305.021v392.17h305.021zM991.319 960h-370.383c-17.951-0.242-32.439-14.73-32.681-32.658v-283.257c0.242-17.951 14.73-32.439 32.658-32.681h370.406c17.951 0.242 32.439 14.73 32.681 32.658v283.257c-0.242 17.951-14.73 32.439-32.658 32.681h-0.023zM958.638 676.766h-305.021v217.872h305.021zM403.064 284.596h-370.383c-17.951-0.242-32.439-14.73-32.681-32.658v-283.257c0.242-17.951 14.73-32.439 32.658-32.681h370.406c17.951 0.242 32.439 14.73 32.681 32.658v283.257c-0.242 17.951-14.73 32.439-32.658 32.681h-0.023zM370.383 1.362h-305.021v217.872h305.021zM991.319 458.894h-370.383c-17.951-0.242-32.439-14.73-32.681-32.658v-457.555c0.242-17.951 14.73-32.439 32.658-32.681h370.406c17.951 0.242 32.439 14.73 32.681 32.658v457.555c-0.242 17.951-14.73 32.439-32.658 32.681h-0.023zM958.638 1.362h-305.021v392.17h305.021z" />
<glyph unicode="&#xe937;" glyph-name="icon_thumbnail_square" d="M403.064 960h-370.383c-17.951-0.242-32.439-14.73-32.681-32.658v-370.406c0.242-17.951 14.73-32.439 32.658-32.681h370.406c17.951 0.242 32.439 14.73 32.681 32.658v370.406c-0.242 17.951-14.73 32.439-32.658 32.681h-0.023zM370.383 589.617h-305.021v305.021h305.021zM991.319 960h-370.383c-17.951-0.242-32.439-14.73-32.681-32.658v-370.406c0.242-17.951 14.73-32.439 32.658-32.681h370.406c17.951 0.242 32.439 14.73 32.681 32.658v370.406c-0.242 17.951-14.73 32.439-32.658 32.681h-0.023zM958.638 589.617h-305.021v305.021h305.021zM403.064 371.745h-370.383c-17.951-0.242-32.439-14.73-32.681-32.658v-370.406c0.242-17.951 14.73-32.439 32.658-32.681h370.406c17.951 0.242 32.439 14.73 32.681 32.658v370.406c-0.242 17.951-14.73 32.439-32.658 32.681h-0.023zM370.383 1.362h-305.021v305.021h305.021zM991.319 371.745h-370.383c-17.951-0.242-32.439-14.73-32.681-32.658v-370.406c0.242-17.951 14.73-32.439 32.658-32.681h370.406c17.951 0.242 32.439 14.73 32.681 32.658v370.406c-0.242 17.951-14.73 32.439-32.658 32.681h-0.023zM958.638 1.362h-305.021v305.021h305.021z" />
<glyph unicode="&#xe938;" glyph-name="icon_en_b" horiz-adv-x="1849" d="M1068.522-40.568v975.573h135.127l14.059-140.595h5.468c79.978 94.45 195.589 156.583 325.822 165.51l1.451 0.080c204.644 0 298.374-132.784 298.374-382.731v-617.837h-164.027v595.966c0 183.555-55.457 260.882-185.117 260.882-99.979 0-168.714-49.989-267.13-149.187v-707.661zM161.684 524.937h522.545c0 197.614-89.825 303.841-242.136 303.841-138.252 0-260.882-110.914-280.409-303.841zM468.65-64c-258.539 0-468.65 189.022-468.65 510.047s214.017 513.953 440.531 513.953c247.603 0 390.542-179.649 390.542-457.715 0.002-0.513 0.002-1.121 0.002-1.728 0-32.473-2.557-64.349-7.481-95.438l0.448 3.436h-660.796c10.935-208.549 138.252-341.333 323.368-341.333 91.692 0.009 176.547 29.274 245.74 78.97l-1.261-0.861 59.362-107.789c-90.119-62.35-201.414-100.116-321.45-101.537l-0.356-0.003z" />
<glyph unicode="&#xe939;" glyph-name="icon_event_date_w" horiz-adv-x="1137" d="M1100.901 818.34h-192.253v105.233c0 20.118-16.309 36.427-36.427 36.427s-36.427-16.309-36.427-36.427v0-105.233h-534.261v105.233c0 20.118-16.309 36.427-36.427 36.427s-36.427-16.309-36.427-36.427v0-105.233h-192.253c-20.118 0-36.427-16.309-36.427-36.427v0-809.486c0-20.118 16.309-36.427 36.427-36.427v0h1064.474c20.118 0 36.427 16.309 36.427 36.427v0 809.486c0 20.118-16.309 36.427-36.427 36.427v0zM1064.474 8.854h-991.621v736.632h155.826v-105.233c0-20.118 16.309-36.427 36.427-36.427s36.427 16.309 36.427 36.427v0 105.233h534.261v-105.233c0-20.118 16.309-36.427 36.427-36.427s36.427 16.309 36.427 36.427v0 105.233h155.826zM892.458 263.842h-647.589c-20.118 0-36.427-16.309-36.427-36.427s16.309-36.427 36.427-36.427v0h647.589c20.118 0 36.427 16.309 36.427 36.427s-16.309 36.427-36.427 36.427v0zM244.87 514.783c-20.118 0-36.427-16.309-36.427-36.427s16.309-36.427 36.427-36.427v0h647.589c20.118 0 36.427 16.309 36.427 36.427s-16.309 36.427-36.427 36.427v0z" />
<glyph unicode="&#xe93a;" glyph-name="icon_works_vb" horiz-adv-x="1064" d="M1027.969 761.55h-226.233l-246.078 190.909c-5.969 4.644-13.572 7.446-21.829 7.446s-15.86-2.802-21.91-7.506l0.080 0.060-250.443-190.909h-225.836c-19.728 0-35.721-15.993-35.721-35.721v0-754.109c0-19.728 15.993-35.721 35.721-35.721v0h992.248c19.728 0 35.721 15.993 35.721 35.721v0 754.109c0 19.728-15.993 35.721-35.721 35.721v0zM531.845 880.62l152.806-119.070h-305.612zM992.248 7.442h-920.806v682.667h920.806zM234.171 134.45h595.349c19.728 0 35.721 15.993 35.721 35.721v0 357.209c0 19.728-15.993 35.721-35.721 35.721v0h-595.349c-19.728 0-35.721-15.993-35.721-35.721v0-357.209c0-19.728 15.993-35.721 35.721-35.721v0zM269.891 491.659h523.907v-285.767h-523.907z" />
<glyph unicode="&#xe93b;" glyph-name="icon_event_add_w" horiz-adv-x="790" d="M687.248 845.459c-70.958 70.787-168.895 114.558-277.055 114.558-1.256 0-2.51-0.006-3.763-0.018l0.191 0.001h-24.626c-227.937-10.309-381.996-166.658-381.996-381.996-0.003-0.591-0.004-1.291-0.004-1.992 0-42.622 5.433-83.974 15.644-123.404l-0.749 3.408c73.306-286.353 343.624-503.982 353.36-515.436 4.973-4.273 11.489-6.874 18.612-6.874 0.101 0 0.202 0.001 0.302 0.002h13.73c0.010 0 0.022 0 0.034 0 7.39 0 14.175 2.592 19.495 6.917l-0.057-0.045c11.454 9.163 280.054 229.083 352.787 515.436 9.477 34.799 14.923 74.753 14.923 115.98 0 1.91-0.012 3.818-0.035 5.723l0.003-0.289c0.167 4.155 0.262 9.032 0.262 13.932 0 98.48-38.478 187.974-101.219 254.266l0.161-0.171zM730.201 576.859c0.021-1.509 0.032-3.29 0.032-5.074 0-36.071-4.819-71.016-13.848-104.227l0.643 2.777c-57.271-233.092-268.027-424.949-319.57-470.192-53.834 43.526-262.872 237.673-322.434 470.765-8.371 31.409-13.179 67.469-13.179 104.651 0 0.86 0.003 1.719 0.008 2.577l-0.001-0.132c-4.582 184.984 128.859 313.271 326.443 319.57h15.463c1.594 0.028 3.474 0.044 5.357 0.044 90.342 0 172.202-36.316 231.778-95.147l-0.034 0.034c53.951-54.845 87.261-130.138 87.261-213.211 0-3.97-0.076-7.923-0.227-11.857l0.017 0.567zM395.168 795.633c-103.429 0-187.275-83.846-187.275-187.275s83.846-187.275 187.275-187.275c103.429 0 187.275 83.846 187.275 187.275v0c0 103.429-83.846 187.275-187.275 187.275v0zM395.168 482.935c-69.269 0-125.423 56.154-125.423 125.423s56.154 125.423 125.423 125.423c69.269 0 125.423-56.154 125.423-125.423v0c0-69.269-56.154-125.423-125.423-125.423v0z" />
<glyph unicode="&#xe93c;" glyph-name="icon_like" horiz-adv-x="1195" d="M608.427-64h-22.187c-12.762 0.072-24.58 4.051-34.336 10.8l0.203-0.133-18.773 12.8c-116.907 80.64-362.667 248.32-476.587 427.52-15.483 24.544-28.544 52.837-37.737 82.822l-0.663 2.512c-11.752 33.796-18.54 72.751-18.54 113.292 0 4.122 0.070 8.227 0.209 12.315l-0.016-0.594c-0.236 4.77-0.371 10.358-0.371 15.978 0 149.795 95.656 277.249 229.216 324.61l2.409 0.745c38.173 13.041 82.156 20.675 127.89 20.906h0.11c2.225 0.054 4.845 0.085 7.473 0.085 90.005 0 171.513-36.383 230.618-95.243l-0.011 0.011c60.101 59.146 142.624 95.665 233.676 95.665 2.749 0 5.49-0.033 8.222-0.099l-0.405 0.008c44.655-0.189 87.463-7.83 127.331-21.74l-2.745 0.834c135.979-48.251 231.61-175.785 231.61-325.654 0-5.515-0.129-10.999-0.386-16.451l0.029 0.771c0.129-3.587 0.203-7.8 0.203-12.030 0-41.531-7.106-81.403-20.17-118.464l0.766 2.495c-9.732-31.374-22.49-58.662-38.386-83.766l0.839 1.419c-116.053-179.2-359.68-346.88-476.587-426.667l-18.773-12.8c-9.443-7.059-21.23-11.471-34.023-11.943l-0.11-0.003zM356.693 840.533c-31.465-0.024-61.683-5.334-89.823-15.089l1.93 0.582c-138.667-46.080-149.333-188.16-149.333-230.4-0.11-2.704-0.173-5.878-0.173-9.067 0-27.296 4.594-53.519 13.050-77.939l-0.504 1.672c6.309-22.062 15.044-41.334 26.149-58.961l-0.549 0.934c101.547-157.867 327.68-314.88 439.893-391.68 112.213 76.8 338.347 233.813 439.893 390.827 10.178 15.956 18.615 34.371 24.362 53.937l0.385 1.529c8.442 23.415 13.322 50.435 13.322 78.595 0 2.369-0.035 4.731-0.103 7.084l0.008-0.346c0 42.667-10.667 184.32-149.333 230.4-24.985 9.21-53.841 14.538-83.94 14.538-1.39 0-2.777-0.011-4.161-0.034l0.209 0.003c-0.364 0.002-0.794 0.003-1.225 0.003-79.103 0-148.879-39.938-190.262-100.75l-0.513-0.799c-11.43-14.448-28.962-23.635-48.64-23.635s-37.21 9.187-48.541 23.506l-0.099 0.129c-40.707 62.862-110.166 104.087-189.31 104.959l-0.13 0.001z" />
<glyph unicode="&#xe93d;" glyph-name="icon_arrow_left_b" horiz-adv-x="536" d="M512-64c-0.034 0-0.074 0-0.114 0-6.696 0-12.752 2.735-17.113 7.15l-487.621 487.621c-4.406 4.411-7.13 10.502-7.13 17.229s2.725 12.818 7.131 17.229v0l487.619 487.619c4.342 4.054 10.191 6.544 16.621 6.544 13.465 0 24.381-10.916 24.381-24.381 0-6.43-2.489-12.279-6.557-16.635l0.013 0.014-470.39-470.39 470.39-470.39c4.406-4.411 7.13-10.502 7.13-17.229s-2.725-12.818-7.131-17.229v0c-4.364-4.417-10.42-7.152-17.116-7.152-0.040 0-0.080 0-0.12 0h0.006z" />
<glyph unicode="&#xe93e;" glyph-name="icon_event_time" d="M512 960c-282.77 0-512-229.23-512-512s229.23-512 512-512c282.77 0 512 229.23 512 512v0c-0.673 282.499-229.502 511.328-511.936 512h-0.064zM512 0c-247.424 0-448 200.576-448 448s200.576 448 448 448c247.424 0 448-200.576 448-448v0c-0.337-247.288-200.712-447.663-447.967-448h-0.033zM512 823.111c-17.673 0-32-14.327-32-32v0-311.111h-208c-17.673 0-32-14.327-32-32s14.327-32 32-32v0h240c17.673 0 32 14.327 32 32v0 343.111c0 17.673-14.327 32-32 32v0z" />
<glyph unicode="&#xe93f;" glyph-name="icon_artists_vb" horiz-adv-x="885" d="M157.804 687.394c0.685-2.237 1.467-4.144 2.398-5.963l-0.095 0.203c-0.154-0.399-0.243-0.861-0.243-1.344s0.089-0.945 0.252-1.37l-0.009 0.026c-0.099-0.462-0.155-0.992-0.155-1.536s0.056-1.074 0.164-1.586l-0.009 0.050c1.794-4.084 3.59-7.487 5.594-10.749l-0.218 0.382c0-2.304 2.688-4.607 4.223-6.527 2.308-2.097 4.811-4.114 7.432-5.976l0.247-0.167c6.171-7.298 12.97-13.732 20.417-19.352l0.317-0.229v-9.215c-0.122-2.883-0.192-6.266-0.192-9.666 0-134.44 108.985-243.426 243.426-243.426s243.426 108.985 243.426 243.426c0 3.399-0.070 6.782-0.208 10.148l0.016-0.482c0.183 2.869 0.287 6.222 0.287 9.599s-0.104 6.73-0.31 10.055l0.023-0.456c5.661 3.295 10.424 6.466 14.99 9.885l-0.4-0.286h1.92c3.752 3.311 7.145 6.825 10.24 10.592l0.126 0.158 3.072 3.84c2.304 3.072 4.223 6.527 6.143 9.599l3.456 6.911c0.043 2.681 0.749 5.188 1.961 7.376l-0.041-0.081c1.179 2.592 2.355 5.778 3.319 9.056l0.137 0.543c0.31 3.050 0.486 6.592 0.486 10.175s-0.177 7.124-0.521 10.616l0.035-0.442s0 0 0 2.688c0.252 2.646 0.396 5.722 0.396 8.831s-0.144 6.185-0.425 9.22l0.029-0.389s0 1.92 0 2.688c-1.994 6.875-4.61 12.863-7.882 18.418l0.203-0.372-4.991 5.759c-4.172 7.461-8.492 13.863-13.28 19.875l0.226-0.294c-52.912 60.069-128.978 98.664-214.101 101.732l-0.528 0.015 9.599 3.84c15.315 3.765 26.497 17.378 26.497 33.603 0 19.085-15.471 34.556-34.556 34.556-5.001 0-9.754-1.062-14.046-2.974l0.22 0.087c-38.050-10.197-68.711-35.958-85.277-69.866l-0.345-0.781c-50.298-3.84-166.251-21.885-215.013-104.051-4.523-7.544-8.905-16.388-12.596-25.585l-0.458-1.292c-1.003-2.404-2.051-5.47-2.927-8.607l-0.145-0.608c-1.625-4.978-3.094-11.059-4.121-17.29l-0.103-0.755c-0.189-1.613-0.297-3.482-0.297-5.375s0.108-3.762 0.318-5.6l-0.021 0.225c-0.183-2.070-0.287-4.478-0.287-6.911s0.104-4.841 0.309-7.221l-0.021 0.31c0-3.456 0-6.911 0-10.367s1.152-3.456 1.92-7.295zM441.545 449.344c-88.49 0.082-161.539 66.089-172.685 151.551l-0.094 0.878h5.759c30.318-7.22 65.127-11.359 100.903-11.359 5.022 0 10.026 0.082 15.009 0.243l-0.726-0.019c57.399 0.51 113.35 4.262 168.348 11.084l-7.088-0.717c24.957 2.304 44.922 7.295 63.352 13.438-5.005-91.777-80.299-164.392-172.709-165.099h-0.070zM224.996 723.102c-0.070 0.576-0.109 1.243-0.109 1.92s0.040 1.344 0.117 1.999l-0.008-0.080c1.77 3.087 3.547 5.721 5.491 8.218l-0.116-0.155v3.072l5.759 9.983c32.636 58.361 140.91 71.415 178.922 71.415h4.223s13.438 0 33.020 0c49.53 0 143.982-9.599 196.967-76.79l5.375-6.911 1.92-3.456 2.304-4.223c0.738-1.315 1.39-2.842 1.876-4.442l0.043-0.166c0.060-0.404 0.095-0.87 0.095-1.344s-0.034-0.94-0.101-1.396l0.006 0.052c0.183-0.924 0.288-1.985 0.288-3.072s-0.105-2.148-0.305-3.176l0.017 0.104c-1.63-3.956-4.273-7.216-7.61-9.553l-0.069-0.046-8.831-6.143-12.286-7.679c-26.397-11.657-57.057-20.526-89.097-25.118l-1.9-0.223c-49.914-5.759-188.904-17.278-249.185 0-16.377 4.34-30.546 9.717-43.983 16.351l1.364-0.609-7.679 4.223-7.295 5.375-3.84 3.84v3.84c-0.859 1.008-1.625 2.141-2.256 3.355l-0.047 0.1s0 0 0 3.072c-0.179 0.924-0.282 1.986-0.282 3.072s0.102 2.148 0.298 3.177l-0.017-0.105s0 2.688 0 4.223c-1.287 2.099-2.339 4.527-3.028 7.102l-0.044 0.193zM565.177 307.282h-244.961c-176.618 0-320.216-131.696-320.216-293.723v-43.003c0-19.085 15.471-34.556 34.556-34.556v0h816.282c18.998 0.214 34.341 15.558 34.555 34.535v43.023c0 162.028-143.598 293.723-320.216 293.723zM816.282 4.727h-747.171v8.447c0 124.016 112.498 224.996 251.105 224.996h244.961c138.223 0 251.105-100.979 251.105-224.996z" />
<glyph unicode="&#xe940;" glyph-name="icon_thumbnail_list_w_mouse_hover-on" horiz-adv-x="1258" d="M41.921 876.157h1173.799c23.027 0.311 41.611 18.895 41.921 41.892v0.029c-0.311 23.027-18.895 41.611-41.892 41.921h-1173.828c-23.027-0.311-41.611-18.895-41.921-41.892v-0.029c0.311-23.027 18.895-41.611 41.892-41.921h0.029zM1215.721 19.843h-1173.799c-23.153 0-41.921-18.769-41.921-41.921s18.769-41.921 41.921-41.921v0h1173.799c23.153 0 41.921 18.769 41.921 41.921s-18.769 41.921-41.921 41.921v0zM1215.721 489.921h-1173.799c-23.153 0-41.921-18.769-41.921-41.921s18.769-41.921 41.921-41.921v0h1173.799c23.153 0 41.921 18.769 41.921 41.921s-18.769 41.921-41.921 41.921v0z" />
<glyph unicode="&#xe941;" glyph-name="icon_arrow_left_w" horiz-adv-x="536" d="M512-64c-0.034 0-0.074 0-0.114 0-6.696 0-12.752 2.735-17.113 7.15l-487.621 487.621c-4.406 4.411-7.13 10.502-7.13 17.229s2.725 12.818 7.131 17.229v0l487.619 487.619c4.342 4.054 10.191 6.544 16.621 6.544 13.465 0 24.381-10.916 24.381-24.381 0-6.43-2.489-12.279-6.557-16.635l0.013 0.014-470.39-470.39 470.39-470.39c4.406-4.411 7.13-10.502 7.13-17.229s-2.725-12.818-7.131-17.229v0c-4.364-4.417-10.42-7.152-17.116-7.152-0.040 0-0.080 0-0.12 0h0.006z" />
<glyph unicode="&#xe942;" glyph-name="icon_research_1_vb" horiz-adv-x="1092" d="M1076.536 13.913l-190.998 169.183c55.734 78.433 89.1 176.15 89.1 281.661 0 270.475-219.264 489.739-489.739 489.739s-489.739-219.264-489.739-489.739c0-270.475 219.264-489.739 489.739-489.739 133.050 0 253.708 53.057 341.971 139.167l-0.1-0.098 190.553-168.737c7.833-7.009 18.232-11.293 29.631-11.293 13.381 0 25.383 5.903 33.545 15.247l0.045 0.052c7.421 7.933 11.978 18.626 11.978 30.383 0 13.698-6.186 25.951-15.917 34.118l-0.069 0.056zM489.739 69.565c-221.298 0-400.696 179.398-400.696 400.696s179.398 400.696 400.696 400.696c221.298 0 400.696-179.398 400.696-400.696v0c0-221.298-179.398-400.696-400.696-400.696v0z" />
<glyph unicode="&#xe943;" glyph-name="icon_delet_vb" d="M557.12 448l457.6 457.28c5.815 5.815 9.411 13.847 9.411 22.72 0 17.745-14.386 32.131-32.131 32.131-8.873 0-16.905-3.596-22.72-9.411l-457.28-457.6-457.28 457.6c-5.815 5.815-13.847 9.411-22.72 9.411-17.745 0-32.131-14.386-32.131-32.131 0-8.873 3.596-16.905 9.411-22.72l457.6-457.28-457.6-457.28c-5.846-5.8-9.466-13.837-9.466-22.72s3.619-16.92 9.463-22.718l0.002-0.002c5.8-5.846 13.837-9.466 22.72-9.466s16.92 3.619 22.718 9.463l457.282 457.602 457.28-457.6c5.8-5.846 13.837-9.466 22.72-9.466s16.92 3.619 22.718 9.463l0.002 0.002c5.846 5.8 9.466 13.837 9.466 22.72s-3.619 16.92-9.463 22.718l-0.002 0.002z" />
<glyph unicode="&#xe944;" glyph-name="icon_date_1" horiz-adv-x="1139" d="M1107.968 816.64h-200.704v112.64c0 16.966-13.754 30.72-30.72 30.72s-30.72-13.754-30.72-30.72v0-112.64h-552.96v112.64c0 16.966-13.754 30.72-30.72 30.72s-30.72-13.754-30.72-30.72v0-112.64h-200.704c-16.874-0.228-30.492-13.846-30.72-30.698v-819.222c0.228-16.874 13.846-30.492 30.698-30.72h1077.27c16.874 0.228 30.492 13.846 30.72 30.698v819.222c-0.228 16.874-13.846 30.492-30.698 30.72h-0.022zM1077.248-2.56h-1015.808v757.76h169.984v-112.64c0-16.966 13.754-30.72 30.72-30.72s30.72 13.754 30.72 30.72v0 112.64h552.96v-112.64c0-16.966 13.754-30.72 30.72-30.72s30.72 13.754 30.72 30.72v0 112.64h169.984zM897.024 255.078h-655.36c-16.966 0-30.72-13.754-30.72-30.72s13.754-30.72 30.72-30.72v0h655.36c16.966 0 30.72 13.754 30.72 30.72s-13.754 30.72-30.72 30.72v0zM241.664 509.44c-16.966 0-30.72-13.754-30.72-30.72s13.754-30.72 30.72-30.72v0h655.36c16.966 0 30.72 13.754 30.72 30.72s-13.754 30.72-30.72 30.72v0z" />
<glyph unicode="&#xe945;" glyph-name="icon_works_b" horiz-adv-x="1064" d="M1027.969 761.55h-225.836l-246.474 190.909c-5.969 4.644-13.572 7.446-21.829 7.446s-15.86-2.802-21.91-7.506l0.080 0.060-250.443-190.909h-225.836c-19.728 0-35.721-15.993-35.721-35.721v0-754.109c0-19.728 15.993-35.721 35.721-35.721v0h992.248c19.728 0 35.721 15.993 35.721 35.721v0 754.109c0 19.728-15.993 35.721-35.721 35.721v0zM531.845 880.62l152.806-119.070h-305.612zM992.248 7.442h-920.806v682.667h920.806zM234.171 134.45h595.349c19.728 0 35.721 15.993 35.721 35.721v0 357.209c0 19.728-15.993 35.721-35.721 35.721v0h-595.349c-19.728 0-35.721-15.993-35.721-35.721v0-357.209c0-19.728 15.993-35.721 35.721-35.721v0zM269.891 491.659h523.907v-285.767h-523.907z" />
<glyph unicode="&#xe946;" glyph-name="icon_upload_vb" horiz-adv-x="1204" d="M1163.228 960h-1122.807c-22.324 0-40.421-18.097-40.421-40.421v0-943.158c0-22.324 18.097-40.421 40.421-40.421v0h229.053c22.324 0 40.421 18.097 40.421 40.421s-18.097 40.421-40.421 40.421h-188.632v862.316h1041.965v-862.316h-494.035v460.8l185.039-185.488c7.427-7.199 17.567-11.636 28.744-11.636s21.317 4.437 28.755 11.647l-0.011-0.010c7.304 7.38 11.816 17.535 11.816 28.744s-4.512 21.364-11.819 28.747l0.003-0.004-255.551 254.204c-7.485 6.875-17.51 11.089-28.519 11.089s-21.034-4.214-28.55-11.117l0.031 0.028-254.204-254.204c-7.304-7.38-11.816-17.535-11.816-28.744s4.512-21.364 11.819-28.747l-0.003 0.004c7.308-7.277 17.388-11.776 28.519-11.776s21.211 4.499 28.521 11.778l-0.001-0.001 185.039 185.488v-503.018c0.988-21.537 18.689-38.625 40.381-38.625 0.014 0 0.028 0 0.042 0h576.222c22.324 0 40.421 18.097 40.421 40.421v0 943.158c0 22.324-18.097 40.421-40.421 40.421v0z" />
<glyph unicode="&#xe947;" glyph-name="icon_cn_b" horiz-adv-x="899" d="M887.312 759.833h-400.333v188.583c0 6.398-5.186 11.584-11.584 11.584v0h-54.212c-6.398 0-11.584-5.186-11.584-11.584v0-188.583h-398.016c-6.398 0-11.584-5.186-11.584-11.584v0-458.715c0-6.398 5.186-11.584 11.584-11.584v0h51.895c6.398 0 11.584 5.186 11.584 11.584v0 16.217h334.538v-358.168c0-6.398 5.186-11.584 11.584-11.584v0h54.212c6.398 0 11.584 5.186 11.584 11.584v0 358.168h334.538v-16.217c0-6.398 5.186-11.584 11.584-11.584v0h54.212c6.398 0 11.584 5.186 11.584 11.584v0 458.715c0 6.398-5.186 11.584-11.584 11.584v0zM821.517 681.991v-301.176h-334.538v301.176zM409.6 681.991v-301.176h-334.538v301.176z" />
<glyph unicode="&#xe948;" glyph-name="icon_research_1_b" horiz-adv-x="1092" d="M1076.536 13.913l-190.998 169.183c55.734 78.433 89.1 176.15 89.1 281.661 0 270.475-219.264 489.739-489.739 489.739s-489.739-219.264-489.739-489.739c0-270.475 219.264-489.739 489.739-489.739 133.050 0 253.708 53.057 341.971 139.167l-0.1-0.098 190.553-168.737c7.833-7.009 18.232-11.293 29.631-11.293 13.381 0 25.383 5.903 33.545 15.247l0.045 0.052c7.421 7.933 11.978 18.626 11.978 30.383 0 13.698-6.186 25.951-15.917 34.118l-0.069 0.056zM489.739 69.565c-221.298 0-400.696 179.398-400.696 400.696s179.398 400.696 400.696 400.696c221.298 0 400.696-179.398 400.696-400.696v0c0-221.298-179.398-400.696-400.696-400.696v0z" />
<glyph unicode="&#xe949;" glyph-name="icon_en_vb" horiz-adv-x="1849" d="M1068.522-40.568v975.573h135.127l14.059-140.595h5.468c79.978 94.45 195.589 156.583 325.822 165.51l1.451 0.080c204.644 0 298.374-132.784 298.374-382.731v-617.837h-164.027v595.966c0 183.555-55.457 260.882-185.117 260.882-99.979 0-168.714-49.989-267.13-149.187v-707.661zM161.684 524.937h522.545c0 197.614-89.825 303.841-242.136 303.841-138.252 0-260.882-110.914-280.409-303.841zM468.65-64c-258.539 0-468.65 189.022-468.65 510.047s214.017 513.953 440.531 513.953c247.603 0 390.542-179.649 390.542-457.715 0.002-0.513 0.002-1.121 0.002-1.728 0-32.473-2.557-64.349-7.481-95.438l0.448 3.436h-660.796c10.935-208.549 138.252-341.333 323.368-341.333 91.692 0.009 176.547 29.274 245.74 78.97l-1.261-0.861 59.362-107.789c-90.119-62.35-201.414-100.116-321.45-101.537l-0.356-0.003z" />
<glyph unicode="&#xe94a;" glyph-name="logo_w_login" horiz-adv-x="8171" d="M1254.693 329.199v245.412c0 154.396-70.289 235.199-203.358 235.199-0.604 0.004-1.317 0.007-2.031 0.007-61.156 0-118.044-18.276-165.499-49.665l1.119 0.696-7.209-4.806 27.034-68.487 11.414 7.81c34.816 24.074 77.935 38.456 124.413 38.456 0.614 0 1.228-0.003 1.841-0.008l-0.094 0.001c2.43 0.178 5.265 0.28 8.124 0.28 30.423 0 58.159-11.509 79.090-30.41l-0.103 0.092c33.342-33.042 37.247-88.312 37.247-127.061v-7.209c-122.856 0-216.575-30.038-270.343-84.708-35.317-35.285-57.164-84.048-57.164-137.914 0-2.099 0.033-4.19 0.099-6.273l-0.008 0.304c-0.119-2.369-0.187-5.144-0.187-7.935 0-93.234 75.581-168.814 168.814-168.814 2.284 0 4.557 0.045 6.819 0.135l-0.325-0.010c0.747-0.010 1.628-0.015 2.511-0.015 63.788 0 120.746 29.239 158.204 75.046l0.289 0.365 5.407-60.677h83.206l-2.403 12.015c-4.523 35.566-7.105 76.715-7.105 118.468 0 6.93 0.071 13.843 0.213 20.738l-0.017-1.031zM1166.982 381.165c0.004-0.34 0.006-0.743 0.006-1.145 0-11.468-1.648-22.551-4.72-33.025l0.208 0.828c-16.059-61.447-71.074-106.058-136.508-106.058-0.903 0-1.804 0.009-2.704 0.025l0.135-0.002c-45.658 0-94.62 28.536-94.62 109.038-0.039 1.163-0.062 2.531-0.062 3.904 0 33.576 13.437 64.015 35.226 86.231l-0.019-0.020c36.947 35.745 102.73 53.768 196.149 53.768h6.909zM368.568 489.903c35.317 35.285 57.164 84.048 57.164 137.914 0 2.099-0.033 4.19-0.099 6.273l0.008-0.304c0.111 2.282 0.174 4.957 0.174 7.646 0 93.068-75.446 168.514-168.514 168.514-2.385 0-4.759-0.050-7.12-0.148l0.338 0.011c-0.62 0.007-1.352 0.011-2.085 0.011-63.549 0-120.36-28.852-158.048-74.171l-0.271-0.335-6.909 62.479h-83.206l1.802-12.316c4.857-36.951 7.629-79.682 7.629-123.061 0-5.42-0.043-10.83-0.13-16.23l0.010 0.815v-245.412c0-154.396 70.289-235.799 202.757-235.799 0.604-0.004 1.317-0.007 2.031-0.007 61.156 0 118.044 18.276 165.499 49.665l-1.119-0.696 7.209 4.806-25.232 68.787-11.414-8.11c-35.029-23.71-78.22-37.851-124.714-37.851-0.403 0-0.805 0.001-1.208 0.003h0.062c-2.688-0.222-5.817-0.349-8.976-0.349-30.163 0-57.629 11.547-78.218 30.463l0.084-0.076c-34.844 32.742-38.749 86.81-38.749 126.761v6.308c122.856 0.901 216.575 30.038 271.244 84.407zM98.225 480.291v114.746c-0.111 1.899-0.174 4.12-0.174 6.356 0 10.011 1.269 19.726 3.654 28.992l-0.176-0.804c16.481 60.839 71.198 104.857 136.196 104.857 0.907 0 1.813-0.009 2.716-0.026l-0.135 0.002c45.658 0 94.62-30.038 94.62-109.038 0.045-1.235 0.070-2.685 0.070-4.141 0-33.503-13.443-63.866-35.23-85.989l0.015 0.015c-37.548-37.848-106.335-55.871-202.757-55.871zM1883.391 539.466c-72.092 35.145-102.13 57.974-102.13 108.738 0.107 47.365 38.529 85.721 85.909 85.721 2.962 0 5.889-0.15 8.774-0.443l-0.363 0.030c1.28 0.035 2.786 0.055 4.296 0.055 35.834 0 69.036-11.265 96.26-30.447l-0.529 0.354 10.814-7.81 33.643 72.692-7.51 4.205c-35.539 23.377-79.111 37.29-125.933 37.29-1.558 0-3.113-0.015-4.664-0.046l0.232 0.004c-109.94 0-187.438-71.791-187.438-171.217 0-72.692 48.962-130.366 150.191-176.324 76.597-35.745 103.932-67.586 103.932-121.654 0-60.076-43.555-97.023-113.544-97.023-43.603 1.617-83.76 15.060-117.741 37.192l0.892-0.545-11.114 7.209-30.038-74.194 7.51-5.106c41.148-25.838 91.17-41.166 144.772-41.166 0.955 0 1.909 0.005 2.861 0.015l-0.145-0.001c124.057 0 204.259 72.092 204.259 183.533-1.502 105.734-78.099 154.997-153.194 188.94zM7047.847 731.71c1.338 0.028 2.915 0.045 4.496 0.045 40.002 0 77.582-10.37 110.197-28.569l-1.15 0.589 11.414-6.308 27.935 74.795-7.209 4.806c-38.222 20.693-83.674 32.856-131.967 32.856-2.817 0-5.624-0.041-8.421-0.124l0.411 0.010c-172.719 0-293.473-134.571-293.473-327.416s110.24-316.001 274.248-316.001c1.531-0.025 3.339-0.039 5.149-0.039 55.009 0 106.983 12.993 153.020 36.079l-1.971-0.895 7.81 4.506-21.627 71.791-11.414-5.407c-34.909-17.618-76.091-27.936-119.683-27.936-0.165 0-0.33 0-0.495 0h0.026c-120.153 0-195.849 94.32-195.849 240.305-0.073 2.453-0.115 5.338-0.115 8.234 0 61.229 18.675 118.097 50.639 165.218l-0.66-1.032c32.523 45.349 85.077 74.545 144.449 74.545 1.491 0 2.977-0.018 4.459-0.055l-0.22 0.004zM7972.421 809.809c-1.224 0.025-2.667 0.040-4.113 0.040-70.163 0-132.401-33.929-171.203-86.275l-0.407-0.575-3.304 74.194h-82.304v-23.129c2.403-41.152 4.506-76.898 4.506-132.468v-462.587h87.711v382.986c0.065 17.74 2.363 34.915 6.625 51.296l-0.317-1.433c14.958 66.897 72.241 116.709 141.723 120.138l0.357 0.014c107.537 0 130.065-97.924 130.065-180.229v-372.773h88.612v384.188c0 235.499-164.909 246.613-197.951 246.613zM2704.934 323.792l-168.814 474.002h-83.806l202.457-567.42c2.909-6.061 4.754-13.137 5.102-20.605l0.004-0.121c-0.878-8.873-3.114-17.014-6.506-24.52l0.198 0.49-88.012-249.617h91.917l295.275 861.794h-83.806zM3851.79 331.302v235.499c0 161.906-76.898 247.514-222.282 247.514-1.122 0.013-2.447 0.020-3.773 0.020-67.58 0-130.776-18.77-184.659-51.38l1.595 0.896-6.909-4.806 30.038-92.517 12.015 8.11c37.399 24.301 83.146 38.751 132.268 38.751 0.282 0 0.563 0 0.845-0.001h-0.044c2.227 0.154 4.826 0.242 7.446 0.242 28.69 0 54.913-10.557 74.999-27.997l-0.141 0.12c19.131-23.109 30.737-53.055 30.737-85.711 0-4.831-0.254-9.602-0.749-14.301l0.050 0.586v-3.905c-122.255 0-215.974-30.038-270.343-85.909-35.886-36.014-58.074-85.698-58.074-140.565 0-2.223 0.036-4.437 0.109-6.643l-0.008 0.321c-0.073-1.904-0.115-4.14-0.115-6.385 0-97.713 79.212-176.925 176.925-176.925 1.836 0 3.666 0.028 5.489 0.084l-0.267-0.006c0.862-0.013 1.88-0.020 2.899-0.020 62.455 0 118.495 27.465 156.701 70.975l0.202 0.235 6.909-58.574h117.449l-2.103 12.616c-4.748 35.457-7.458 76.449-7.458 118.073 0 7.597 0.090 15.172 0.27 22.725l-0.021-1.121zM3727.132 389.275c0-0.106 0.001-0.231 0.001-0.356 0-10.556-1.425-20.779-4.094-30.488l0.189 0.806c-13.811-52.244-60.651-90.131-116.342-90.131-0.706 0-1.411 0.006-2.115 0.018l0.106-0.001c-19.525 0-82.605 6.909-82.605 94.32-0.069 1.411-0.108 3.065-0.108 4.728 0 28.514 11.516 54.338 30.151 73.076l-0.005-0.005c32.141 30.038 90.114 47.761 174.221 47.761v0zM4666.424 814.315c-65.185-2.199-121.156-39.576-149.73-93.663l-0.461-0.957-3.304 82.004h-114.445v-11.414c3.304-64.282 4.806-122.255 4.806-176.925v-434.351h126.761v335.526c-0.010 0.884-0.015 1.929-0.015 2.974 0 16.668 1.426 33.002 4.163 48.889l-0.242-1.699c12.916 76.898 62.479 126.461 126.16 126.461 1.342 0.049 2.917 0.076 4.5 0.076 9.035 0 17.86-0.903 26.389-2.622l-0.85 0.143 13.217-2.403v123.457l-9.011 1.802c-8.241 1.72-17.712 2.704-27.412 2.704-0.184 0-0.368 0-0.552-0.001h0.029zM5447.416 960h-125.559v-158.301h-115.647v-101.529h115.647v-521.162h125.559v521.162h115.647v101.529h-115.647zM6127.779 402.793c-61.879 0-112.042-50.163-112.042-112.042s50.163-112.042 112.042-112.042c61.879 0 112.042 50.163 112.042 112.042 0 0.106 0 0.211 0 0.317v-0.016c0 0 0 0 0 0 0 61.713-50.029 111.742-111.742 111.742-0.106 0-0.211 0-0.317 0h0.016z" />
<glyph unicode="&#xe94b;" glyph-name="icon_event_time_w" d="M512 960c-282.77 0-512-229.23-512-512s229.23-512 512-512c282.77 0 512 229.23 512 512v0c-0.673 282.499-229.502 511.328-511.936 512h-0.064zM512 0c-247.424 0-448 200.576-448 448s200.576 448 448 448c247.424 0 448-200.576 448-448v0c-0.337-247.288-200.712-447.663-447.967-448h-0.033zM512 823.111c-17.673 0-32-14.327-32-32v0-311.111h-208c-17.673 0-32-14.327-32-32s14.327-32 32-32v0h240c17.673 0 32 14.327 32 32v0 343.111c0 17.673-14.327 32-32 32v0z" />
<glyph unicode="&#xe94c;" glyph-name="icon_research_1_w" horiz-adv-x="1092" d="M1076.536 13.913l-190.998 169.183c55.734 78.433 89.1 176.15 89.1 281.661 0 270.475-219.264 489.739-489.739 489.739s-489.739-219.264-489.739-489.739c0-270.475 219.264-489.739 489.739-489.739 133.050 0 253.708 53.057 341.971 139.167l-0.1-0.098 190.553-168.737c7.833-7.009 18.232-11.293 29.631-11.293 13.381 0 25.383 5.903 33.545 15.247l0.045 0.052c7.421 7.933 11.978 18.626 11.978 30.383 0 13.698-6.186 25.951-15.917 34.118l-0.069 0.056zM489.739 69.565c-221.298 0-400.696 179.398-400.696 400.696s179.398 400.696 400.696 400.696c221.298 0 400.696-179.398 400.696-400.696v0c0-221.298-179.398-400.696-400.696-400.696v0z" />
<glyph unicode="&#xe94d;" glyph-name="icon_size_b_mouse_hover" d="M1023.61 448v0 0c-0.089 3.799-0.796 7.406-2.024 10.761l0.075-0.233c-1.962 3.987-4.584 7.357-7.759 10.105l-0.040 0.034-137.261 140.381c-5.209 4.863-12.224 7.849-19.938 7.849-16.152 0-29.246-13.094-29.246-29.246 0-7.713 2.986-14.729 7.865-19.955l-0.016 0.017 88.518-88.908h-382.538v381.368l88.518-88.908c5.291-5.285 12.598-8.553 20.667-8.553s15.376 3.268 20.667 8.553v0c5.381 5.247 8.718 12.567 8.718 20.667s-3.337 15.42-8.712 20.661l-0.006 0.006-138.431 138.821-9.359 6.239c-3.305 1.479-7.162 2.34-11.221 2.34-0.031 0-0.061 0-0.092 0h-2.725c-1.288 0.173-2.777 0.272-4.289 0.272s-3.001-0.099-4.461-0.291l0.172 0.018c-3.767-1.559-6.997-3.664-9.767-6.256l0.018 0.017-139.991-141.161c-5.285-5.291-8.553-12.598-8.553-20.667s3.268-15.376 8.553-20.667v0c5.369-5.162 12.624-8.398 20.632-8.578l0.035-0.001c8.058 0.097 15.337 3.352 20.672 8.584l88.903 88.903v-382.928h-381.368l88.518 88.908c5.875 5.303 9.551 12.946 9.551 21.447s-3.676 16.144-9.525 21.425l-0.025 0.022c-5.291 5.285-12.598 8.553-20.667 8.553s-15.376-3.268-20.667-8.553v0l-138.431-140.381c-2.713-2.541-4.84-5.672-6.183-9.19l-0.056-0.169c-1.471-3.272-2.328-7.093-2.328-11.113s0.857-7.841 2.399-11.289l-0.070 0.176c1.298-3.855 3.444-7.132 6.226-9.737l0.013-0.012 138.431-138.431c5.234-5.298 12.499-8.579 20.531-8.579 0.048 0 0.096 0 0.144 0h-0.007c0.186-0.004 0.405-0.007 0.625-0.007 7.88 0 14.99 3.292 20.032 8.575l0.010 0.011c5.381 5.247 8.718 12.567 8.718 20.667s-3.337 15.42-8.712 20.661l-88.524 88.524h382.928v-382.928l-88.908 88.908c-5.426 5.624-13.028 9.117-21.447 9.117-16.449 0-29.784-13.335-29.784-29.784 0-8.031 3.178-15.319 8.346-20.676l-0.009 0.009 140.381-137.261c2.63-2.572 5.732-4.674 9.162-6.163l0.197-0.076c3.332-1.481 7.22-2.343 11.308-2.343s7.976 0.862 11.49 2.414l-0.182-0.072c3.627 1.565 6.729 3.667 9.364 6.245l-0.006-0.005 138.431 138.821c5.381 5.247 8.718 12.567 8.718 20.667s-3.337 15.42-8.712 20.661l-0.006 0.006c-5.291 5.285-12.598 8.553-20.667 8.553s-15.376-3.268-20.667-8.553v0l-88.518-90.468v382.928h382.538l-88.518-88.518c-5.285-5.291-8.553-12.598-8.553-20.667s3.268-15.376 8.553-20.667v0c5.291-5.285 12.598-8.553 20.667-8.553s15.376 3.268 20.667 8.553v0l137.261 138.431c1.95 2.73 3.899 5.459 5.459 8.189 2.015 3.605 3.513 7.8 4.258 12.25l0.032 0.228z" />
<glyph unicode="&#xe94e;" glyph-name="icon_size_w_mouse_hover" d="M1023.61 448v0 0c-0.089 3.799-0.796 7.406-2.024 10.761l0.075-0.233c-1.962 3.987-4.584 7.357-7.759 10.105l-0.040 0.034-137.261 140.381c-5.209 4.863-12.224 7.849-19.938 7.849-16.152 0-29.246-13.094-29.246-29.246 0-7.713 2.986-14.729 7.865-19.955l-0.016 0.017 88.518-88.908h-382.538v381.368l88.518-88.908c5.291-5.285 12.598-8.553 20.667-8.553s15.376 3.268 20.667 8.553v0c5.381 5.247 8.718 12.567 8.718 20.667s-3.337 15.42-8.712 20.661l-0.006 0.006-138.431 138.821-9.359 6.239c-3.305 1.479-7.162 2.34-11.221 2.34-0.031 0-0.061 0-0.092 0h-2.725c-1.288 0.173-2.777 0.272-4.289 0.272s-3.001-0.099-4.461-0.291l0.172 0.018c-3.767-1.559-6.997-3.664-9.767-6.256l0.018 0.017-139.991-141.161c-5.285-5.291-8.553-12.598-8.553-20.667s3.268-15.376 8.553-20.667v0c5.369-5.162 12.624-8.398 20.632-8.578l0.035-0.001c8.058 0.097 15.337 3.352 20.672 8.584l88.903 88.903v-382.928h-381.368l88.518 88.908c5.875 5.303 9.551 12.946 9.551 21.447s-3.676 16.144-9.525 21.425l-0.025 0.022c-5.291 5.285-12.598 8.553-20.667 8.553s-15.376-3.268-20.667-8.553v0l-138.431-140.381c-2.713-2.541-4.84-5.672-6.183-9.19l-0.056-0.169c-1.471-3.272-2.328-7.093-2.328-11.113s0.857-7.841 2.399-11.289l-0.070 0.176c1.298-3.855 3.444-7.132 6.226-9.737l0.013-0.012 138.431-138.431c5.234-5.298 12.499-8.579 20.531-8.579 0.048 0 0.096 0 0.144 0h-0.007c0.186-0.004 0.405-0.007 0.625-0.007 7.88 0 14.99 3.292 20.032 8.575l0.010 0.011c5.381 5.247 8.718 12.567 8.718 20.667s-3.337 15.42-8.712 20.661l-88.524 88.524h382.928v-382.928l-88.908 88.908c-5.426 5.624-13.028 9.117-21.447 9.117-16.449 0-29.784-13.335-29.784-29.784 0-8.031 3.178-15.319 8.346-20.676l-0.009 0.009 140.381-137.261c2.63-2.572 5.732-4.674 9.162-6.163l0.197-0.076c3.332-1.481 7.22-2.343 11.308-2.343s7.976 0.862 11.49 2.414l-0.182-0.072c3.627 1.565 6.729 3.667 9.364 6.245l-0.006-0.005 138.431 138.821c5.381 5.247 8.718 12.567 8.718 20.667s-3.337 15.42-8.712 20.661l-0.006 0.006c-5.291 5.285-12.598 8.553-20.667 8.553s-15.376-3.268-20.667-8.553v0l-88.518-90.468v382.928h382.538l-88.518-88.518c-5.285-5.291-8.553-12.598-8.553-20.667s3.268-15.376 8.553-20.667v0c5.291-5.285 12.598-8.553 20.667-8.553s15.376 3.268 20.667 8.553v0l137.261 138.431c1.95 2.73 3.899 5.459 5.459 8.189 2.015 3.605 3.513 7.8 4.258 12.25l0.032 0.228z" />
</font>
</defs>
</svg>
